<svg width="359" height="480" viewBox="0 0 359 480" fill="none" xmlns="http://www.w3.org/2000/svg">
<path d="M100.301 73.2353L67.0098 478.406H187.584V3.84094L100.301 73.2353Z" stroke="#2E438E" stroke-width="2.79527" stroke-miterlimit="10"/>
<path d="M187.59 73.1902L95.4785 131.98" stroke="#2E438E" stroke-width="2.79527" stroke-miterlimit="10"/>
<path d="M187.589 147.868L89.0039 210.789" stroke="#2E438E" stroke-width="2.79527" stroke-miterlimit="10"/>
<path d="M187.586 222.537L82.8613 289.377" stroke="#2E438E" stroke-width="2.79527" stroke-miterlimit="10"/>
<path d="M187.588 297.207L76.0566 368.398" stroke="#2E438E" stroke-width="2.79527" stroke-miterlimit="10"/>
<path d="M187.586 371.377L69.6191 446.668" stroke="#2E438E" stroke-width="2.79527" stroke-miterlimit="10"/>
<path d="M270.298 73.1898L187.586 3.84094V478.406H305.712L270.298 73.1898Z" stroke="#2E438E" stroke-width="2.79527" stroke-miterlimit="10"/>
<path d="M36.6934 255.957L2 478.406H67.0131L88.472 217.246L36.6934 255.957Z" stroke="#2E438E" stroke-width="2.79527" stroke-miterlimit="10"/>
<path d="M329.982 224.591L315.406 215.814L280.955 195.083L274.717 123.809L308.47 150.664L323.388 162.542L329.982 224.591Z" stroke="#2E438E" stroke-width="2.79527" stroke-miterlimit="10"/>
<path d="M337.989 299.815L323.867 295.434L288.772 284.565L285.232 244.02L319.964 258.573L334.244 264.561L337.989 299.815Z" stroke="#2E438E" stroke-width="2.79527" stroke-miterlimit="10"/>
<path d="M345.569 371.029L331.706 368.982L295.693 363.676L292.26 324.405L327.863 332.803L341.863 336.108L345.569 371.029Z" stroke="#2E438E" stroke-width="2.79527" stroke-miterlimit="10"/>
<path d="M357 478.406H305.722L295.777 364.654L298.521 393.412L334.685 396.967L348.488 398.324L357 478.406Z" stroke="#2E438E" stroke-width="2.79527" stroke-miterlimit="10"/>
<path d="M323.863 295.435L324.333 299.816L327.858 332.804" stroke="#2E438E" stroke-width="2.79527" stroke-miterlimit="10"/>
<path d="M331.703 368.982L331.915 371.028L334.682 396.967" stroke="#2E438E" stroke-width="2.79527" stroke-miterlimit="10"/>
<path d="M315.408 215.814L316.333 224.592L319.964 258.572" stroke="#2E438E" stroke-width="2.79527" stroke-miterlimit="10"/>
</svg>
