<svg width="129" height="172" viewBox="0 0 129 172" fill="none" xmlns="http://www.w3.org/2000/svg">
<path d="M36.1681 26.0512L24.2583 171H67.3934V1.22559L36.1681 26.0512Z" stroke="#2E438E" stroke-miterlimit="10"/>
<path d="M67.3934 26.0352L34.4407 47.0671" stroke="#2E438E" stroke-miterlimit="10"/>
<path d="M67.3934 52.7507L32.1249 75.2606" stroke="#2E438E" stroke-miterlimit="10"/>
<path d="M67.3934 79.4636L29.9285 103.375" stroke="#2E438E" stroke-miterlimit="10"/>
<path d="M67.3934 106.177L27.4933 131.645" stroke="#2E438E" stroke-miterlimit="10"/>
<path d="M67.3934 132.711L25.1911 159.646" stroke="#2E438E" stroke-miterlimit="10"/>
<path d="M96.9836 26.035L67.3934 1.22559V171H109.653L96.9836 26.035Z" stroke="#2E438E" stroke-miterlimit="10"/>
<path d="M13.4115 91.4195L1 171H24.2583L31.9351 77.5708L13.4115 91.4195Z" stroke="#2E438E" stroke-miterlimit="10"/>
<path d="M118.336 80.1986L113.121 77.0585L100.796 69.642L98.5645 44.1438L110.64 53.7514L115.976 58.0006L118.336 80.1986Z" stroke="#2E438E" stroke-miterlimit="10"/>
<path d="M121.199 107.11L116.147 105.542L103.592 101.654L102.326 87.1489L114.751 92.3554L119.859 94.4976L121.199 107.11Z" stroke="#2E438E" stroke-miterlimit="10"/>
<path d="M123.911 132.586L118.951 131.854L106.068 129.956L104.839 115.906L117.576 118.911L122.585 120.093L123.911 132.586Z" stroke="#2E438E" stroke-miterlimit="10"/>
<path d="M128 171H109.655L106.098 130.305L107.079 140.594L120.017 141.865L124.955 142.351L128 171Z" stroke="#2E438E" stroke-miterlimit="10"/>
<path d="M116.147 105.542L116.315 107.11L117.576 118.911" stroke="#2E438E" stroke-miterlimit="10"/>
<path d="M118.951 131.854L119.027 132.586L120.017 141.865" stroke="#2E438E" stroke-miterlimit="10"/>
<path d="M113.121 77.0583L113.452 80.1985L114.751 92.3551" stroke="#2E438E" stroke-miterlimit="10"/>
</svg>
