<svg width="175" height="106" viewBox="0 0 175 106" fill="none" xmlns="http://www.w3.org/2000/svg">
<path d="M173.5 36.2146L87.6592 1.35986L1.50004 36.2146L87.4986 70.8214L173.5 36.2146Z" stroke="#2E438E" stroke-miterlimit="10"/>
<path d="M37.6651 64.9241L34.1373 86.4765C34.1373 86.4765 65.8926 91.5484 87.0619 105C111.097 90.0043 141.308 86.037 141.308 86.037L137.56 64.9241" stroke="#2E438E" stroke-miterlimit="10"/>
<path d="M89.7049 36.0908L16.9945 43.4788V56.2683" stroke="#2E438E" stroke-miterlimit="10"/>
<path d="M13.5794 70.3788H20.7645C21.9142 70.3788 22.8468 69.4462 22.8468 68.2966V61.7539C22.8468 60.6043 21.9142 59.6716 20.7645 59.6716H13.5794C12.4298 59.6716 11.4972 60.6043 11.4972 61.7539V68.2966C11.4972 69.4462 12.427 70.3788 13.5794 70.3788Z" stroke="#2E438E" stroke-miterlimit="10"/>
<path d="M10.976 97.6514H23.926C25.3715 97.6514 26.493 96.3919 26.3267 94.9577L23.726 72.5205C23.5851 71.3032 22.5538 70.3818 21.3253 70.3818H12.9709C11.7198 70.3818 10.6745 71.337 10.5646 72.5824L8.56966 95.0197C8.44286 96.4342 9.55584 97.6514 10.976 97.6514Z" stroke="#2E438E" stroke-miterlimit="10"/>
</svg>
