<svg width="241" height="288" viewBox="0 0 241 288" fill="none" xmlns="http://www.w3.org/2000/svg">
<path d="M238.888 35.4885C236.958 34.9702 236.161 33.501 235.088 32.1176C233.794 30.4471 233.379 28.3626 232.242 26.6809C230.391 23.9439 227.466 22.4933 224.631 20.9757C223.228 20.2262 221.691 19.7414 220.595 18.4251C219.795 17.4705 218.524 16.3929 217.372 17.5451C216.164 18.7533 214.892 18.7272 213.475 18.6973C212.667 18.6787 211.986 18.9994 211.234 19.2641C209.435 19.8943 207.801 20.9123 205.744 21.0503C204.181 21.1509 202.356 20.7296 200.964 21.8594C200.033 22.6164 199.274 22.6425 198.324 21.9266C197.396 21.2293 196.327 20.9645 195.227 21.6133C193.873 22.4076 192.654 23.3883 191.76 24.6785C191.087 25.6554 190.44 25.7822 189.195 25.6256C187.209 25.3795 184.972 24.5181 183.218 26.7033C182.612 27.4602 181.168 27.945 180.398 26.5653C179.811 25.5175 179.179 24.548 178.147 23.9476C177.522 23.5822 177.612 22.9967 177.814 22.6872C178.962 20.9235 177.485 19.1784 177.911 17.3326C178.345 15.4532 177.189 13.5888 176.168 11.9853C175.372 10.7362 174.721 9.03953 173.12 8.7002C170.801 8.20798 169.646 6.08625 167.622 5.23979C167.035 4.99368 167.102 4.1957 166.912 3.64756C166.597 2.73771 166.485 1.75328 166.13 0.862078C165.734 -0.126076 165.124 -0.394557 164.503 0.750211C163.804 2.03295 162.771 2.64448 161.264 2.70788C160.254 2.74889 158.878 2.84957 158.34 3.49094C157.004 5.07572 156.013 4.36723 154.787 3.54315C154.356 3.25229 153.919 2.91297 153.167 3.42382C149.02 6.23913 144.546 6.21303 139.842 4.94148C137.923 4.42316 136.173 3.42009 134.247 3.10687C132.448 2.81229 130.802 2.36482 129.373 1.23497C129.093 1.01123 128.805 0.593598 128.438 0.973945C127.601 1.83905 126.12 1.86515 125.645 3.24856C125.461 3.77807 124.912 4.24045 124.16 4.15841C122.682 4.00553 121.471 4.85572 120.132 5.21742C118.497 5.66116 116.904 6.77609 115.09 6.04523C113.568 5.43369 112.005 4.893 110.812 3.65129C110.206 3.02856 109.398 2.93534 108.684 3.5245C106.133 5.63505 103.025 6.19438 99.9134 6.85813C99.1692 7.01847 98.8326 6.92898 98.3351 6.48897C95.8144 4.26282 93.073 2.49533 89.5087 2.66686C85.3947 2.86822 81.363 3.9496 77.2079 3.85265C76.6693 3.84146 75.9064 4.03909 75.4015 4.60961C74.2458 5.90726 72.7985 6.07879 71.4895 5.03843C70.5769 4.31503 69.7017 4.3374 68.7742 4.87063C67.7794 5.44115 66.8519 6.14591 65.8121 6.61202C64.9744 6.98491 64.664 7.51068 64.8061 8.33477C65.0978 10.0389 64.0544 10.7436 62.7005 11.247C60.9689 11.8847 59.6187 12.9138 58.9119 14.7037C58.3172 16.2064 57.3186 17.4407 56.1592 18.5706C55.3028 19.4021 54.6707 20.4686 53.889 21.3337C51.6787 23.7761 50.0256 26.8934 46.5774 27.9524C45.777 28.1985 44.9131 28.8138 44.0828 27.7511C43.3909 26.8636 42.5083 27.1284 41.8949 27.9412C41.1095 28.9853 40.4438 30.1226 39.6659 31.1705C39.3442 31.6067 39.7407 31.8417 39.7743 32.1698C40.8066 31.8976 41.491 33.2773 42.5681 32.759C42.8374 32.6285 43.3348 32.4085 43.3161 32.6918C43.2188 34.3139 44.4306 34.0193 45.2347 33.9373C47.1571 33.7397 47.1533 35.0373 47.0112 36.197C46.8055 37.8862 48.006 38.5201 49.0645 39.1466C49.8424 39.6052 51.9068 41.7381 51.488 42.3012C49.906 44.4192 50.9606 46.7945 50.5455 48.9983C50.3435 50.0796 50.063 51.0902 48.4212 51.2244C46.6709 51.3661 44.8831 51.3139 43.1814 51.6122C41.7977 51.8509 41.3526 51.4593 41.2329 50.2997C41.1432 49.4308 40.3428 49.2406 39.8454 49.0095C39.2133 48.7186 39.0936 49.6135 38.787 50.0349C38.585 50.3108 38.3419 50.583 38.1399 50.8366C36.2886 53.1336 33.8651 51.9366 31.7857 51.7129C30.3346 51.56 29.9157 52.041 29.6689 53.0702C29.4332 54.036 29.0779 54.4499 27.9784 54.5431C25.4202 54.7519 23.4156 56.4374 21.2389 57.5822C20.2478 58.1042 19.5522 58.3913 18.4414 58.1229C17.4989 57.8954 16.0553 56.7096 15.5915 57.9401C15.1577 59.0924 16.8145 59.428 17.8505 59.7897C19.5073 60.3602 19.9449 61.7995 20.4423 63.2985C20.8574 64.5589 19.713 64.682 19.3016 65.3233C19.0697 65.685 18.7182 65.9722 18.8004 66.4569C18.9687 67.46 18.232 67.6129 17.5401 67.9298C15.5055 68.862 13.6654 67.9074 11.7618 67.322C11.7281 67.639 11.7019 67.8254 11.6944 68.0081C11.571 70.3909 11.0661 70.6817 9.06523 69.4027C8.16389 68.8248 7.74876 69.3356 7.6777 70.018C7.56176 71.1068 7.2663 71.7482 6.0134 71.7184C5.5272 71.7072 5.44118 72.1062 5.64314 72.6469C5.9947 73.5716 6.39114 74.4069 7.4907 74.8134C6.50334 75.3093 6.02836 75.891 6.1256 76.8195C4.16584 76.648 5.08214 78.0612 4.95498 78.9114C4.71936 80.4626 4.76424 82.0959 3.5637 83.3562C2.60627 84.363 2.56512 85.5264 3.16352 86.7085C3.44402 87.2566 3.66468 87.7787 3.10368 88.1963C2.26593 88.819 2.20983 89.6804 2.35943 90.5343C2.7035 92.5368 1.69745 94.0544 0.616589 95.5161C-0.27353 96.7168 -0.19125 97.9436 0.807328 98.7976C3.02514 100.703 5.35142 102.586 7.99934 103.791C9.14003 104.309 10.2134 105.077 10.3742 105.853C10.636 107.15 11.7992 107.68 12.2928 107.631C14.0993 107.467 14.4246 109.026 15.2474 109.865C15.6663 110.294 16.1189 110.745 16.519 111.204C17.7495 112.613 19.9636 112.699 20.8799 114.313C21.5194 115.443 22.3459 115.339 23.2211 115.22C24.9789 114.981 27.3089 115.965 28.1205 117.472C28.3112 117.826 28.7152 118.564 28.4683 118.605C26.9424 118.84 27.6642 120.47 26.6731 121.167C25.1958 122.211 24.4029 123.956 24.0738 125.757C23.6811 127.928 22.4544 129.766 21.7962 131.828C21.5418 132.622 22.2861 134.509 22.9593 135.095C24.1299 136.113 25.7045 135.065 26.9648 136.157C27.6343 136.735 27.8699 137.723 28.7264 137.996C31.0639 138.745 31.7296 141.009 31.666 142.709C31.5688 145.256 32.3392 147.739 31.9016 150.267C31.752 151.14 31.9802 151.77 32.9002 152.382C34.6094 153.523 35.4658 156.222 34.456 156.994C32.9451 158.146 33.0348 159.705 32.7955 161.197C32.1821 165 34.1755 167.741 37.5303 167.827C39.7968 167.886 42.0258 167.383 44.3521 168.099C45.5638 168.472 46.4988 168.546 46.8317 169.915C46.985 170.553 47.3104 171.153 47.5984 171.749C47.7255 172.007 48.1182 172.223 47.8228 172.529C47.5273 172.835 47.1309 172.73 46.8092 172.492C45.9827 171.873 45.3506 171.969 44.2735 172.32C42.4335 172.92 42.224 174.546 41.2329 175.646C40.4026 176.567 39.4489 177.425 40.6869 178.711C41.0571 179.095 40.6831 179.379 40.4326 179.644C38.6187 181.549 37.1114 183.551 38.1736 186.426C38.2372 186.602 37.8968 186.93 37.7398 187.18C37.0778 188.216 36.0231 187.929 35.0544 188.007C34.4486 188.06 33.7903 187.687 33.2742 188.537C31.8867 190.83 30.372 193.053 28.861 195.271C28.5431 195.741 28.2851 196.371 28.775 196.547C30.6525 197.222 31.6361 199.541 34.2204 199.045C36.5579 198.597 37.089 199.205 37.478 201.446C37.5789 202.017 37.8071 202.211 38.3082 202.144C40.7579 201.804 41.3339 202.867 40.4924 205.015C40.4737 205.067 40.4737 205.145 40.4961 205.198C41.1207 206.652 40.1109 206.995 39.06 207.413C38.4055 207.674 37.7659 207.729 37.089 207.763C34.931 207.867 33.9324 209.337 34.4448 211.425C34.5458 211.842 35.1592 212.7 34.3513 212.819C32.3916 213.107 32.0251 214.688 31.206 216.015C30.2112 217.626 30.9704 221.646 32.702 221.765C34.6094 221.896 35.78 222.712 37.3358 223.525C39.1759 224.491 39.0263 225.46 38.9366 226.769C38.8618 227.903 38.1138 228.835 37.4742 229.734C36.9207 230.513 36.8721 230.994 37.6837 231.643C38.7421 232.489 39.247 233.485 38.7122 235.025C38.3195 236.155 38.3045 237.84 39.6846 238.392C42.1118 239.362 43.0917 241.808 45.1001 243.143C45.2235 243.225 45.3469 243.538 45.2908 243.616C44.2025 245.171 45.6274 246.275 45.8107 247.528C46.1136 249.624 46.9327 250.802 48.4287 252.096C50.0294 253.483 52.5576 254.348 54.5622 253.509C55.2093 253.237 55.6132 253.386 56.3051 253.669C58.3658 254.52 60.3892 255.728 62.8576 255.165C64.6976 254.743 66.605 254.471 68.4862 254.449C70.6367 254.423 71.5942 256.425 72.9967 257.633C74.5039 258.927 76.0335 260.094 78.1279 259.069C79.6651 258.316 80.9292 259.237 81.7109 260.068C82.2719 260.665 83.9922 261.668 82.8104 262.831C81.8941 263.73 81.9951 264.621 82.485 265.177C83.0573 265.826 84.0483 266.184 85.1329 265.654C86.3671 265.054 87.6238 264.502 89.0263 264.226C91.8201 263.67 93.3348 264.423 94.3969 267.023C94.7896 267.988 95.5937 269.014 96.8316 268.361C99.1392 267.146 100.729 268.272 102.131 269.827C102.954 270.736 103.44 271.344 104.166 269.808C104.461 269.185 104.858 269.241 105.695 269.443C108.878 270.196 111.799 271.46 114.649 272.978C115.584 273.477 116.661 273.175 117.106 274.98C117.465 276.434 119.597 277.844 121.781 277.859C122.226 277.862 122.899 277.56 123.094 278.191C123.494 279.492 124.721 279.895 125.674 280.346C127.047 280.998 127.084 281.89 126.729 283.005C126.299 284.354 126.972 284.738 128.132 284.94C129.889 285.249 130.985 283.955 132.358 283.329C132.889 283.083 133.199 282.016 133.798 282.471C134.467 282.975 135.148 283.724 135.11 284.757C135.099 285.067 135.054 285.395 135.122 285.689C135.354 286.663 135.713 287.457 137.007 286.968C137.512 286.778 138.129 286.886 138.634 286.696C139.542 286.349 140.309 285.988 140.403 287.49C140.44 288.113 141.072 287.863 141.465 287.897C141.865 287.93 142.052 287.774 142.224 287.323C143.099 284.996 143.454 284.876 145.568 286.275C146.177 286.677 146.948 287.017 146.929 286.178C146.884 284.123 148.107 284.037 149.782 284.142C148.75 281.949 148.724 279.085 145.201 279.663C144.898 279.716 144.898 279.346 144.748 279.175C143.892 278.191 143.765 274.939 144.988 273.858C146.802 272.254 145.841 270.904 145.137 269.39C144.857 268.794 144.636 268.164 144.446 267.53C144.083 266.299 144.655 265.68 145.814 266.06C146.921 266.426 147.004 265.885 147.06 265.125C147.153 263.827 146.383 263.379 145.25 263.484C144.935 263.51 144.782 263.447 144.659 263.264C144.457 262.977 144.782 262.704 144.913 262.69C146.491 262.533 146.989 260.803 148.384 260.37C149.341 260.072 148.971 259.24 148.814 258.659C148.657 258.092 148.208 258.129 147.628 258.338C147.011 258.558 146.233 258.312 145.609 258.513C144.808 258.774 144.292 258.114 144.221 257.827C144.098 257.342 144.296 256.69 145.141 256.563C146.05 256.421 146.888 255.843 147.026 254.926C147.363 252.666 149.543 252.003 150.912 251.007C152.045 250.183 153.264 249.545 154.016 248.311C154.487 247.535 155.194 246.976 155.976 246.805C159.084 246.122 160.153 243.206 162.113 241.301C163.089 240.354 163.265 238.623 164.982 238.306C165.49 238.213 165.64 237.643 165.674 237.314C165.846 235.722 167.712 233.895 165.128 232.601C165.004 232.542 164.986 232.124 165.03 231.893C165.221 230.852 164.645 230.073 163.987 229.484C163.587 229.122 163.411 228.76 163.546 228.406C164.039 227.131 163.433 225.897 163.519 224.647C163.774 220.844 163.549 216.921 164.454 213.278C164.982 211.153 165.423 209.374 164.66 207.331C164.339 206.465 164.17 205.559 163.834 204.676C163.258 203.165 161.975 201.487 163.549 199.791C163.979 199.328 163.744 198.948 163.549 198.467C162.693 196.375 161.896 194.257 161.066 192.113C160.531 192.146 160.273 192.527 160 192.836C158.702 194.313 157.951 194.399 156.533 193.12C155.995 192.631 155.583 192.296 154.764 192.702C153.867 193.15 152.576 192.9 152.27 192.12C151.368 189.831 148.631 189.939 147.423 188.048C146.843 187.139 144.427 187.754 144.086 188.914C143.709 190.2 142.931 190.025 142.104 189.794C141.633 189.663 141.27 189.439 140.717 189.637C139.284 190.155 138.619 189.26 138.503 188.048C138.398 186.945 137.972 186.02 137.336 185.218C135.32 182.69 132.564 181.075 129.83 179.476C129.313 179.174 128.865 178.98 129.231 178.491C129.762 177.779 130.248 176.791 131.307 176.828C132.268 176.862 132.762 176.314 133.345 175.754C134.572 174.583 135.223 172.872 137.033 172.208C137.56 172.014 138.428 171.075 138.035 170.25C137.452 169.024 137.897 168.14 138.566 167.226C138.802 166.902 138.974 166.507 138.753 166.197C138.069 165.231 138.847 164.791 139.329 164.154C140.115 163.121 140.451 162.032 139.984 160.637C139.527 159.28 140.586 157.501 138.85 156.454C138.828 156.439 138.836 156.319 138.865 156.275C139.972 154.466 139.426 152.893 138.248 151.349C137.766 150.719 138.293 150.417 138.832 150.122C140.115 149.421 140.758 148.362 140.287 146.889C139.976 145.916 140.485 145.543 141.199 145.039C142.587 144.059 144.573 143.306 143.503 140.919C143.466 140.841 143.503 140.654 143.563 140.624C145.328 139.726 146.353 137.578 148.683 137.634C150.362 137.675 151.899 137.38 152.692 135.658C153.126 134.718 153.68 134.338 154.697 134.897C155.052 135.091 155.535 135.05 155.946 135.158C158.545 135.837 159.869 135.21 160.928 132.749C161.201 132.108 161.706 132.082 162.285 132.022C164.634 131.768 166.736 131.216 167.66 128.58C167.91 127.868 168.916 127.081 169.664 126.977C170.446 126.869 170.098 128.084 170.423 128.636C170.543 128.841 170.831 128.964 170.925 129.181C171.474 130.43 172.742 131.097 173.255 132.492C174.059 134.677 175.495 134.778 177.155 133.066C177.44 132.771 177.593 132.335 177.746 131.94C178.345 130.389 179.295 128.606 180.308 127.831C181.786 126.705 182.406 125.217 183.487 123.964C184.127 123.222 185.17 122.785 184.568 121.462C184.445 121.193 185.114 120.701 185.436 121.298C186.109 122.551 186.764 121.924 187.209 121.257C189.03 118.538 191.79 116.912 194.318 115.026C195.111 114.436 195.186 114.056 194.472 113.363C193.593 112.516 193.413 111.595 193.701 110.249C194.012 108.795 195.777 108.064 195.332 106.352C195.149 105.633 195.53 104.995 195.882 104.301C196.387 103.313 197.393 102.314 197.093 101.173C196.858 100.267 197.097 99.8454 197.654 99.3084C200.242 96.825 200.691 93.4354 201.192 90.1838C201.361 89.095 201.798 88.4051 202.247 87.5251C203.13 85.7912 204.016 86.9136 204.962 87.238C205.187 87.3163 205.456 87.2641 205.699 87.2977C207.621 87.5736 209.316 86.5221 211.197 86.3766C212.633 86.2685 213.149 84.3742 212.397 82.9199C212.177 82.4949 212.091 82.1704 212.323 81.7267C213.583 79.329 212.962 76.9314 212.21 74.571C212.065 74.1161 211.735 73.8849 212.094 73.3106C212.719 72.3001 212.88 71.2821 211.844 70.2343C211.171 69.5556 211.107 68.5824 212.046 67.803C213.415 66.6695 213.886 64.9169 214.888 63.526C215.173 63.127 215.311 62.5602 214.918 62.3589C213.089 61.408 214.271 60.1551 214.252 58.8612C214.196 54.6102 218.157 52.839 219.511 49.5278C220.233 47.7603 222.578 46.9138 222.316 44.505C222.256 43.9643 222.783 42.9985 223.827 43.5429C224.373 43.83 224.844 43.5914 225.196 43.2856C226.011 42.5659 227.01 42.7263 227.941 42.4988C229.919 42.0141 231.857 42.0103 233.872 42.07C235.398 42.1147 236.879 41.4958 238.17 42.8978C238.94 43.7331 239.299 43.3751 239.497 42.2751C239.677 41.2757 239.722 40.2466 240.414 39.2621C241.326 37.9757 240.481 35.9173 238.888 35.4885ZM145.272 138.637C144.341 139.025 143.888 139.86 143.05 140.207C142.572 140.408 142.46 140.77 142.635 141.068C143.952 143.294 141.715 143.794 140.694 144.603C140.07 145.099 139.483 145.334 139.595 146.184C139.808 147.814 139.449 149.126 137.889 149.999C137.209 150.383 137.055 151.211 137.564 151.778C138.753 153.105 139.266 154.44 138.207 156.073C138.091 156.248 138.069 156.711 138.159 156.759C139.883 157.688 138.607 159.317 139 160.291C139.827 162.341 138.675 163.367 138.069 164.933C137.56 166.261 137.138 167.965 137.332 169.594C137.534 171.28 136.644 172.417 135.084 172.637C133.517 172.857 134.183 174.412 133.267 175.05C132.608 175.504 132.175 176.116 131.247 176.064C129.77 175.978 129.153 177.257 128.465 178.171C128.027 178.749 128.502 179.42 129.299 179.905C131.632 181.322 133.932 182.817 136.09 184.476C137.145 185.285 137.493 186.665 137.743 188.019C138.106 189.984 139.097 190.618 141.083 190.454C141.427 190.427 141.801 190.491 142.127 190.606C143.469 191.084 144.438 191.218 144.618 189.26C144.733 187.978 146.431 188.03 146.772 188.515C148.126 190.427 151.163 190.196 151.948 192.889C152.206 193.776 153.769 193.806 154.809 193.44C155.321 193.261 155.665 193.168 156.155 193.504C158.478 195.092 159.05 195.018 160.696 193.034C161.421 194.801 162.109 196.588 162.895 198.329C163.086 198.758 163.314 199.358 163.082 199.53C161.302 200.868 162.053 202.49 162.828 203.762C164.021 205.723 163.194 208.229 164.776 210.019C164.888 210.146 164.761 210.616 164.604 210.821C162.902 213.062 163.452 215.758 163.217 218.245C162.932 221.213 163.377 224.248 163.071 227.213C162.85 229.365 164.877 230.867 164.282 232.978C164.282 233.004 164.368 233.06 164.421 233.09C165.633 233.787 166.003 234.41 165.225 235.953C164.653 237.091 164.294 238.09 163.063 238.579C162.801 238.683 162.483 238.735 162.386 239.127C161.78 241.595 159.387 242.736 158.175 244.705C157.203 246.282 155.191 245.589 154.297 246.995C154.14 247.241 153.653 247.356 153.612 247.588C153.156 250.164 149.794 249.564 149.001 251.794C148.907 252.055 148.245 252.1 147.868 252.282C147.538 252.439 146.966 252.659 146.966 252.842C147.019 254.963 145.38 255.627 143.982 256.589C143.544 256.887 142.897 257.782 143.552 258.327C144.158 258.823 144.58 260.307 145.889 259.252C146.057 259.114 146.379 259.184 146.592 259.076C147.116 258.812 147.797 258.569 148.088 259.114C148.515 259.919 147.576 259.792 147.194 260.083C146.102 260.918 145.302 262.067 144.083 262.798C143.361 263.227 143.784 263.782 144.397 263.998C144.853 264.155 145.403 264.047 145.848 264.218C146.188 264.349 146.749 264.431 146.671 265.046C146.585 265.725 146.042 265.49 145.657 265.535C143.219 265.826 142.961 266.329 144.202 268.473C144.812 269.525 144.745 270.804 145.429 271.874C145.582 272.12 144.55 273.086 144.098 273.746C142.92 275.468 143.099 278.493 144.382 279.977C144.595 280.219 144.741 280.543 145.059 280.443C147.471 279.686 147.868 281.811 149.102 283.169C148.283 283.433 147.546 283.534 146.977 283.896C146.316 284.313 146.319 285.156 146.222 285.891C143.634 284.366 143.26 284.44 141.192 286.987C141.109 285.783 140.395 285.51 139.438 285.734C138.671 285.913 137.938 286.29 137.164 286.383C136.188 286.502 135.178 286.495 135.645 284.932C135.989 283.784 135.271 282.99 134.49 282.274C133.659 281.509 132.941 282.091 132.175 282.434C131.378 282.792 130.679 283.262 130.013 283.817C129.269 284.436 128.352 284.407 127.608 283.907C126.905 283.437 127.395 282.9 127.746 282.337C128.334 281.401 127.294 280.73 126.879 280.405C125.641 279.447 124.216 278.731 123.255 277.43C122.896 276.945 122.335 277.187 121.867 277.091C119.1 276.535 118.453 276.203 117.888 273.768C117.749 273.171 117.271 272.974 116.822 272.869C114.488 272.314 112.48 271.05 110.341 270.058C108.725 269.308 106.825 269.584 105.235 268.29C104.297 267.526 103.926 269.39 103.021 270.002C102.333 268.492 100.822 268.003 99.5132 267.254C98.8288 266.862 98.1706 266.967 97.4525 267.425C96.3081 268.152 95.4965 267.996 95.0925 266.441C94.6961 264.912 93.4507 263.92 91.9285 263.734C89.7892 263.469 87.5752 263.45 85.6715 264.722C84.8412 265.274 83.9174 265.46 83.3003 264.908C82.8029 264.465 83.0012 263.525 83.6482 262.936C83.7679 262.828 83.8314 262.611 83.8464 262.44C83.981 260.859 80.6412 257.626 79.2051 258.193C75.8727 259.509 73.7185 257.838 71.8747 255.556C70.6405 254.031 69.1333 253.804 67.4615 254.024C63.7626 254.512 60.0713 255.139 56.6118 253.08C56.0208 252.726 55.3028 252.696 54.8091 252.901C51.9068 254.113 49.9995 252.457 48.0247 250.791C47.2244 250.116 46.5587 249.5 46.8317 248.333C46.9962 247.655 46.5811 247.196 46.1323 246.722C45.676 246.241 45.0627 245.522 45.4329 244.94C46.9551 242.546 44.4755 241.696 43.5293 240.611C42.5943 239.537 41.4461 238.377 40.0436 237.665C38.7795 237.024 39.247 235.588 39.52 234.917C40.1782 233.313 39.2507 232.325 38.4952 231.408C37.7959 230.554 38.0427 230.058 38.4653 229.338C39.0787 228.294 39.6359 227.235 39.7519 225.979C39.894 224.468 39.722 223.309 37.8333 223.16C37.4892 223.134 36.8571 223.204 36.73 222.44C36.4121 220.564 35.1255 220.587 33.6819 221.064C33.4687 221.135 33.4088 221.485 33.0722 221.351C32.7618 221.228 30.6188 217.991 30.8096 217.764C31.954 216.418 32.1971 214.359 34.1905 213.658C34.9048 213.409 35.8922 213.215 35.4883 211.872C34.744 209.396 35.4284 208.524 38.1287 208.128C41.0459 207.703 41.0833 207.655 41.2404 204.728C41.2591 204.366 41.3302 204.001 41.4162 203.643C41.9024 201.659 41.5433 201.323 39.4415 201.73C38.974 201.819 38.4728 201.745 37.9567 201.745C38.5738 199.037 37.1451 197.542 34.2279 198.277C31.9278 198.851 31.1611 196.617 29.4183 196.356C29.149 196.315 29.2799 195.726 29.5118 195.391C30.8731 193.418 32.3055 191.483 33.5397 189.432C34.0746 188.541 34.7478 188.805 35.4284 188.735C36.7113 188.6 38.0277 188.57 38.6598 187.109C38.8057 186.766 39.1123 186.438 38.9478 186.08C37.8108 183.596 39.419 181.922 40.6831 180.158C41.001 179.718 41.6107 179.397 41.2367 178.752C40.268 177.089 41.9435 176.302 42.3699 175.098C42.8636 173.703 43.8958 173.099 45.1674 172.693C45.3207 172.641 45.575 172.477 45.605 172.514C46.9551 174.14 48.683 172.253 50.1902 173.017C50.8559 173.353 51.4244 172.585 51.6937 171.94C52.7409 169.464 55.0971 167.991 56.4285 165.806C57.3635 164.273 59.4392 164.463 60.1012 162.785C60.1648 162.621 60.7893 162.662 61.1559 162.636C61.7692 162.591 62.6519 162.934 62.6706 161.901C62.6855 161.2 62.218 160.686 61.556 160.261C60.8118 159.787 59.9478 160.324 59.1288 159.701C60.176 158.59 61.2494 157.468 59.8356 155.883C59.5514 155.562 60.3069 155.357 60.6061 155.231C61.0362 155.052 61.5972 155.227 61.6047 155.738C61.6159 156.286 60.9988 156.938 62.1282 157.039C63.0632 157.125 63.4522 156.394 63.4971 155.816C63.6392 154.015 64.1404 153.735 65.9954 154.283C67.4727 154.72 67.0987 152.934 66.9379 152.136C66.7696 151.315 66.5003 150.968 67.5774 150.551C68.9575 150.01 69.1183 147.198 68.0786 145.927C67.4615 145.177 66.9603 144.335 66.706 143.966C68.0374 144.003 68.2244 143.746 67.4914 141.903C66.7434 140.032 66.9267 137.22 67.8841 137.175C68.849 137.13 68.4414 136.523 68.3217 136.519C66.691 136.489 67.6672 135.274 67.4353 134.636C67.3717 134.457 67.3418 134.028 67.6597 134.024C70.1692 134.009 68.2918 132.824 68.0935 132.216C67.9888 131.884 67.7195 131.552 67.7682 131.198C68.1235 128.629 66.2834 127.678 64.4732 126.708C62.693 125.75 61.7692 124.128 61.0661 122.342C60.9502 122.043 60.4602 121.719 60.8641 121.387C61.212 121.104 61.7169 121.148 62.0946 121.398C62.5434 121.7 62.951 122.323 63.5158 121.797C63.9534 121.391 63.9272 120.846 63.7701 120.157C63.3026 118.095 63.8412 116.364 65.8159 115.134C67.0015 114.395 68.4488 113.575 67.8168 111.666C67.7121 111.349 68.0038 110.984 68.2805 110.935C70.2104 110.611 69.7878 109.13 69.7429 107.918C69.7204 107.333 69.7691 106.915 70.087 106.39C70.8088 105.204 70.2478 104.19 68.8266 104.111C67.8168 104.052 66.9042 103.966 66.6985 102.81C66.4966 101.695 66.8145 101.08 68.0786 100.476C70.2889 99.4165 71.8672 97.705 71.5942 94.7778C71.396 92.712 72.5815 90.7842 73.2772 88.8675C73.711 87.6706 75.3192 87.7489 76.4898 87.9651C78.3748 88.3156 80.0989 89.1435 81.5388 90.4225C82.8927 91.6269 84.4373 92.2011 86.2175 92.1489C87.9566 92.0967 88.9365 92.9432 89.4826 94.5429C90.0959 96.3328 91.2067 97.5558 93.1552 98.2009C95.1861 98.8759 96.7456 100.476 98.4174 101.796C100.59 103.518 102.677 105.166 105.785 104.935C106.859 104.857 107.756 104.973 108.665 104.253C109.088 103.921 110.165 103.794 110.288 104.395C110.479 105.334 111.679 106.155 110.789 107.277C110.486 107.657 110.24 108.082 109.944 108.47C109.402 109.19 110.075 109.764 110.441 109.578C112.222 108.679 113.441 110.957 115.311 110.245C115.939 110.003 116.025 111.864 115.816 112.568C115.348 114.134 116.508 114.243 117.259 115.011C119.283 117.084 122.372 115.958 124.455 117.733C124.919 118.128 125.233 118.326 125.45 118.963C125.828 120.063 126.254 121.309 127.948 121.167C128.532 121.119 129.007 121.846 129.082 122.454C129.422 125.273 131.101 127.279 133.147 128.979C134.262 129.908 135.78 129.483 137.111 129.333C137.624 129.277 138.125 128.99 138.334 129.587C138.907 131.239 140.41 131.888 141.693 132.738C142.381 133.193 142.86 133.76 143.387 134.356C143.956 134.998 144.225 135.87 145.246 136.239C146.671 136.758 146.712 138.037 145.272 138.637ZM213.553 64.3054C212.895 65.4576 212.334 66.7664 211.376 67.6166C210.224 68.642 210.501 69.4773 211.141 70.4468C211.72 71.3306 212.035 72.1845 211.391 73.1652C211.115 73.5828 211.201 73.9371 211.339 74.4703C211.967 76.8941 212.962 79.3589 211.519 81.8609C211.272 82.2935 211.384 82.7708 211.627 83.263C212.394 84.7993 211.78 85.7576 210.06 85.8061C209.387 85.8247 208.732 85.7875 208.081 86.1492C206.933 86.7868 205.751 86.6637 204.532 86.1753C203.579 85.7949 202.961 85.5563 201.869 86.7831C200.411 88.4126 200.729 90.154 200.179 91.8133C199.438 94.0358 199.509 96.5677 197.606 98.3613C196.633 99.2786 195.564 100.181 196.338 101.866C196.517 102.254 195.859 103.063 195.523 103.641C194.98 104.577 194.191 105.42 194.887 106.639C195.074 106.964 194.868 107.348 194.558 107.628C192.489 109.477 191.82 111.457 193.944 113.75C194.569 114.425 193.791 114.839 193.417 115.052C191.012 116.424 188.802 117.971 187.328 120.406C186.707 121.432 185.974 121.454 185.66 120.175C185.511 119.571 185.324 119.31 184.707 119.37C184.123 119.426 183.715 119.713 183.745 120.291C183.899 123.36 182.365 125.295 179.931 127.021C179.295 127.473 178.547 128.811 178.057 129.889C177.586 130.933 176.89 131.888 176.22 132.831C175.416 133.961 174.306 133.879 173.954 132.522C173.588 131.101 172.705 130.191 171.762 129.236C171.594 129.069 171.545 128.755 171.362 128.636C170.42 128.025 170.902 126.011 169.604 126.197C168.034 126.425 166.934 127.939 166.31 129.292C165.734 130.538 165.087 130.791 163.86 130.996C162.323 131.25 160.157 130.914 160.082 133.581C160.056 134.382 157.7 135.158 156.761 134.815C156.533 134.733 156.324 134.599 156.099 134.505C153.556 133.435 153.601 133.472 151.854 135.81C151.462 136.336 150.661 136.713 149.988 136.84C147.797 137.257 145.897 136.489 144.535 134.8C143.597 133.637 142.695 132.484 141.356 131.794C140.133 131.168 140.825 130.053 140.545 129.195C140.223 129.576 140.855 130.493 139.868 130.534C139.03 130.568 138.966 129.937 138.768 129.315C138.54 128.599 138.23 128.054 137.16 128.573C135.694 129.277 134.183 128.856 132.967 127.838C131.228 126.373 130.035 124.519 129.777 122.222C129.691 121.447 129.078 120.977 128.958 120.239C128.906 119.918 128.547 119.545 127.978 120.045C127.421 120.533 126.105 120.026 126.221 119.381C126.669 116.853 124.496 117.062 123.258 116.484C121.213 115.529 119.032 114.865 116.93 114.034C116.291 113.78 116.373 113.124 116.414 112.576C116.485 111.562 116.201 110.506 116.713 109.272C113.269 110.424 112.259 108.746 111.773 105.551C111.429 103.306 110.053 103.007 107.973 104.07C107.124 104.503 106.286 104.357 105.785 103.917C105.22 103.425 105.535 102.545 105.927 101.874C106.327 101.191 106.709 100.498 107.117 99.8193C107.498 99.1891 107.797 98.723 107.143 97.9213C106.428 97.0412 107.382 96.1687 107.756 95.326C108.25 94.2185 108.414 95.4676 108.77 95.4676C109.802 95.4751 110.756 95.0649 111.036 94.1961C111.728 92.0483 113.849 91.5225 115.341 90.4374C116.283 89.7513 116.942 89.3597 116.818 88.1889C117.903 87.9204 118.15 89.6543 119.283 89.0614C120.446 88.4536 119.53 87.4133 119.874 86.5109C120.577 87.1858 121.332 87.816 122.234 86.8949C122.978 86.138 123.307 87.0404 123.771 87.279C125.304 88.0695 125.682 87.8645 125.768 86.1865C125.805 85.437 125.33 84.3034 127.047 84.9298C128.158 85.34 128.861 84.2139 128.307 83.0467C127.941 82.2674 127.683 81.2121 128.233 80.8355C128.977 80.3246 130.11 80.306 130.952 81.1077C132.014 82.1182 132.605 81.9728 132.9 80.4514C133.098 79.4223 133.79 78.9897 134.991 78.9934C136.109 79.0009 137.22 78.5199 137.373 77.0283C137.478 75.9768 140.145 74.034 141.139 74.3286C141.749 74.5076 142.149 74.6679 142.538 74.0601C142.942 73.4299 142.964 72.8221 142.523 72.2143C142.377 72.0167 142.202 71.8414 142.041 71.6513C141.738 71.297 141.192 71.0323 141.745 70.4356C142.276 69.8651 142.822 70.3461 143.032 70.5922C144.322 72.1062 144.733 70.8197 144.767 69.9322C144.82 68.6309 145.956 68.3214 146.484 68.4631C148.679 69.0522 148.234 67.4302 148.328 66.4047C148.365 65.9759 148.358 65.5396 148.758 65.7298C151.091 66.8522 153.077 65.204 154.607 64.3165C157.154 62.8399 159.028 63.7236 161.13 64.6335C161.545 64.8125 161.96 65.0399 162.345 64.9132C164.454 64.2233 165.625 66.304 167.095 66.5427C168.83 66.8298 170.012 69.4549 172.189 67.8254C172.402 67.6651 173.292 68.3102 173.804 68.6719C174.609 69.2349 175.394 69.3132 175.817 68.3698C176.329 67.2251 177.234 67.5346 178.038 67.5905C178.872 67.6502 178.898 68.3698 178.85 69.0075C178.809 69.5556 179.104 69.8241 179.557 69.9211C180.454 70.1112 181.251 70.5102 182.051 70.939C182.769 71.3231 183.596 70.6072 183.629 70.3089C183.79 68.9441 185.178 68.8956 185.664 68.9627C187.867 69.2797 189.83 68.9292 191.794 67.9373C193.021 67.322 194.528 67.4674 195.683 66.4793C196.424 65.8491 197.546 66.0206 198.44 65.7298C201.271 64.8199 204.304 64.462 206.832 62.6535C208.156 61.7063 212.233 62.124 213.374 63.1196C213.777 63.4701 213.744 63.9697 213.553 64.3054ZM239.419 39.6201C239.079 40.5151 238.727 41.3951 238.551 42.6554C237.366 40.6978 235.791 40.8171 234.116 41.3168C233.521 41.4958 232.937 41.4398 232.309 41.2534C231.314 40.9588 230.293 40.7873 229.328 41.5703C228.838 41.9656 228.173 42.0514 227.462 41.8575C226.897 41.7046 226.277 41.7158 225.723 42.2117C225.117 42.7561 224.522 43.0619 223.501 42.6293C222.05 42.0141 221.531 44.0016 221.635 44.3819C222.215 46.5447 220.229 47.1935 219.425 48.4352C217.906 50.7844 216.508 53.2492 214.365 55.1733C213.867 55.6208 213.729 56.6127 213.68 57.3696C213.617 58.3652 213.538 59.2975 213.033 60.1998C212.584 61.0053 213.007 61.6728 213.721 62.2731C211.339 60.886 208.904 61.5944 206.556 62.0084C205.355 62.2172 204.353 63.1457 203.104 63.5894C200.788 64.4098 198.38 64.8423 196.061 65.5918C192.8 66.6508 189.853 68.9143 186.019 68.0715C185.069 67.859 183.682 68.7949 183.027 69.7868C182.47 70.6221 181.98 70.3387 181.576 69.9844C180.806 69.3132 179.411 69.4661 179.265 67.859C179.183 66.9901 176.307 66.8298 175.499 67.5569C175.274 67.7546 174.971 68.2244 174.908 68.1946C173.449 67.4003 171.508 67.8441 170.349 67.1841C168.363 66.0505 165.98 65.6142 164.294 63.9623C164.174 63.8467 164.088 63.5186 163.92 63.7386C162.618 65.4128 161.635 63.9138 160.546 63.4365C160.494 63.4141 160.374 63.4402 160.37 63.4216C160 61.9487 158.661 61.9412 157.898 62.426C156.847 63.0935 155.636 62.907 154.637 63.5447C153.321 64.3799 151.507 64.1823 150.396 65.4949C148.245 64.4582 147.748 65.5061 147.557 67.4674C147.505 67.9932 146.211 67.5719 145.493 67.6091C144.412 67.6688 142.92 67.1803 144.3 69.1156C144.535 69.4475 144.483 69.8017 144.247 70.1448C143.914 70.6295 143.567 70.2604 143.305 70.1224C142.587 69.7383 142.026 68.9254 141.094 69.9173C140.118 70.954 141.311 71.435 141.513 72.1584C141.641 72.6096 142.321 72.7998 142.145 73.4821C139.337 73.4187 137.5 74.7872 136.494 77.3975C136.274 77.9643 135.776 78.3968 135.032 78.3521C133.147 78.2365 132.156 79.1575 132.032 81.0853C131.356 80.3694 130.664 79.866 129.684 79.8324C127.496 79.7579 126.621 81.0667 127.634 83.002C127.81 83.3376 128.098 83.6284 127.937 84.0125C127.75 84.4525 127.271 84.3854 126.961 84.2922C125.428 83.841 124.825 84.4003 124.99 85.9403C125.02 86.2275 124.941 86.5258 124.87 87.2231C123.737 86.1193 122.866 85.258 121.684 86.5034C121.519 86.6749 121.108 86.5295 120.835 86.3095C120.45 86 120.233 85.3736 119.477 85.7651C118.662 86.1865 119.133 86.8502 119.036 87.3983C118.987 87.6743 119.096 87.9763 119.137 88.2895C118.632 88.3828 118.168 88.1143 118.026 87.8383C117.72 87.2343 117.278 87.2343 116.792 87.3499C116.175 87.499 116.403 88.0621 116.418 88.4387C116.444 89.1845 116.123 89.315 115.431 89.6133C113.362 90.5082 111.477 91.7425 110.389 93.8717C110.008 94.6175 109.391 94.7964 108.643 94.3042C107.782 93.7337 107.326 94.0507 107.034 94.9717C106.799 95.7138 106.709 96.5341 106.069 97.1121C105.961 97.2128 105.897 97.5633 105.961 97.6155C108.044 99.3196 105.568 100.259 105.292 101.557C105.217 101.907 104.944 102.213 104.846 102.56C104.39 104.167 103.343 104.577 101.929 103.578C100.041 102.25 98.1668 100.901 96.3679 99.4576C95.2085 98.5291 94.064 97.6863 92.6129 97.2351C91.4722 96.8772 90.6569 95.9039 90.3016 94.8486C89.49 92.4473 88.1212 91.0825 85.4284 91.392C83.9249 91.5635 82.7319 90.6387 81.7744 89.7774C80.1513 88.3157 78.1055 87.8794 76.2318 87.1038C74.5188 86.3915 72.3197 88.2709 71.8896 90.415C71.4745 92.5106 70.6031 94.4646 70.6517 96.7206C70.6816 98.2494 69.3464 99.4911 67.7719 99.9237C66.2235 100.352 65.6999 101.259 65.9131 102.728C66.1226 104.141 67.08 104.749 68.404 104.823C69.5484 104.887 69.8626 105.327 69.2754 106.334C69.2118 106.438 69.0921 106.583 69.122 106.654C70.2777 109.455 66.3769 110.622 66.9416 113.295C67.0127 113.635 66.145 114.321 65.5877 114.612C63.1343 115.887 62.3526 117.759 63.2689 120.365C63.3437 120.571 63.2353 120.843 63.2128 121.048C62.7005 121.354 62.5172 120.914 62.2255 120.738C61.5934 120.365 60.9053 120.287 60.3256 120.742C59.7085 121.227 60.0713 121.831 60.277 122.416C61.3055 125.366 63.2353 127.417 66.2647 128.297C66.9042 128.483 66.7397 128.673 66.8556 129.192C67.1324 130.441 66.4816 131.947 67.742 132.958C67.828 133.029 67.9103 133.264 67.9103 133.264C65.9056 134.371 67.5886 136.426 66.6723 137.962C65.7486 139.517 66.893 141.333 67.1959 143.093C66.9192 143.373 66.4666 143.194 66.059 143.238C65.6364 143.279 65.3372 143.503 65.2324 143.865C65.1053 144.294 65.483 144.622 65.7785 144.745C66.7023 145.136 67.1847 145.946 67.6298 146.706C68.591 148.354 68.3254 149.272 66.6649 150.297C66.0328 150.689 65.771 151.047 66.059 151.789C66.2684 152.333 66.3245 152.937 66.5639 154.067C65.8982 153.075 64.8397 153.705 64.6714 152.635C64.4695 153.347 63.2876 153.086 63.3026 153.981C63.3101 154.585 62.9697 155.007 62.6182 155.596C62.0572 155.074 61.7318 154.142 60.7557 154.425C60.1199 154.612 59.2597 154.649 58.9193 155.081C58.4705 155.656 58.9567 156.338 59.5215 156.83C60.2321 157.453 59.903 158.001 59.3532 158.553C58.9343 158.971 58.1676 159.351 58.5079 160.048C58.8146 160.671 59.5589 160.801 60.2657 160.772C60.995 160.742 61.4925 161.148 62.1469 161.678C58.1452 161.946 56.2826 164.862 54.2855 167.383C53.0887 168.893 51.2112 169.937 50.7662 172.115C50.6876 172.51 49.1767 172.6 48.4735 171.843C48.2716 171.626 48.0995 171.321 48.0509 171.037C47.5535 167.961 45.2871 166.977 42.6541 166.943C40.7131 166.921 38.6972 166.812 36.8048 167.204C35.6454 167.443 35.1741 166.962 34.6954 166.32C32.7282 163.673 32.874 160.276 35.0694 157.706C36.2101 156.372 36.0568 154.283 34.0372 152.669C32.1372 151.151 32.601 149.477 32.7282 147.817C32.803 146.807 32.6309 145.957 32.3729 145.058C32.3018 144.805 31.9016 144.696 32.126 144.294C33.1508 142.467 31.4042 140.968 31.4753 139.245C31.4828 139.099 31.3519 138.861 31.2247 138.809C29.1677 137.958 28.2925 135.542 26.0448 134.953C25.7568 134.878 25.394 134.61 25.2033 134.707C24.1898 135.199 23.0117 135.08 22.6526 134.233C22.1664 133.077 22.1066 131.679 22.8546 130.426C23.7746 128.882 24.6834 127.372 24.8405 125.463C24.9901 123.684 26.359 122.439 27.552 121.227C28.3112 120.459 28.6703 119.415 29.1266 118.564C29.7025 117.483 28.5095 116.312 27.4697 115.689C25.9812 114.806 24.5638 113.262 22.5404 114.824C22.0654 115.186 21.6017 114.567 21.3399 113.996C21.0706 113.407 20.8312 112.766 20.0459 112.546C17.5027 111.826 16.059 109.794 14.5331 107.859C14.3237 107.594 14.3611 107.016 13.8487 107.094C11.8066 107.408 11.0437 106.091 10.3967 104.533C10.2695 104.223 9.91047 103.887 9.59257 103.794C6.54074 102.918 4.46878 100.546 1.95551 98.8572C0.489429 97.8728 -0.0117301 96.7728 1.49175 95.3297C2.61749 94.2446 2.89798 92.8388 2.73716 91.2913C2.66984 90.6574 2.50154 89.9452 3.07376 89.356C4.12096 88.2858 4.76424 87.1373 3.60484 85.7129C3.29068 85.3288 3.4702 84.8925 3.7694 84.5271C5.0971 82.905 4.94376 80.6416 6.18544 78.9934C6.69408 78.3148 5.45614 78.367 5.81518 77.789C6.20414 77.4236 6.4435 77.8188 6.69408 78.0538C7.01946 78.3521 7.29996 78.4229 7.64404 78.0761C8.00307 77.7144 7.66647 77.5131 7.47948 77.3229C7.10922 76.9575 7.0419 76.2974 7.25882 76.1371C9.03531 74.832 7.80112 74.0638 6.85116 73.1503C6.60058 72.9079 5.5646 72.2889 6.91848 72.0353C8.07413 71.8228 8.36211 71.0248 8.38081 69.9136C9.47663 70.4431 10.3742 71.6177 11.7543 70.3461C12.4237 69.7309 11.5523 68.3437 12.8426 68.381C13.5869 68.4034 14.2152 69.0821 15.0904 69.0597C16.9865 69.0075 18.8004 68.9478 19.2941 66.5576C19.3465 66.3003 19.7055 66.1101 19.9075 65.8752C21.7027 63.7647 21.7214 62.825 19.9411 60.6883C19.4774 60.1365 18.9201 59.6592 18.2245 58.9581C20.8649 59.3869 22.3796 57.5039 24.3319 56.6425C25.5324 56.1167 26.5946 55.0614 28.0158 55.2665C29.4632 55.4716 30.0653 54.7408 30.3121 53.5401C30.5253 52.4885 30.8133 52.1156 32.0587 52.4885C35.2227 53.4356 38.0801 53.0329 40.0099 49.4644C40.4288 52.276 42.153 52.4102 44.1725 52.2871C45.8929 52.1827 47.6246 52.2424 49.3263 51.8882C50.7549 51.5898 50.8559 50.3295 51.1327 49.3078C51.3795 48.3979 51.4356 47.4471 51.0953 46.4403C50.7961 45.564 50.7923 44.5982 51.4655 43.6436C52.6287 42.0066 51.6301 39.2398 49.7152 38.4716C48.5371 37.9981 47.4974 37.7258 47.8564 35.9211C48.0621 34.8882 47.5535 33.2773 45.9453 33.3854C44.2885 33.4973 43.4694 31.5247 41.7341 31.9573C41.5733 31.9945 40.167 31.521 41.0983 30.3427C41.4386 29.9138 41.749 29.2053 42.052 28.6236C42.4671 27.8257 43.432 27.6579 43.8958 28.3552C44.7485 29.6454 45.6274 29.1233 46.5848 28.7206C50.3136 27.1545 52.5838 23.9737 54.9961 20.9981C55.4785 20.4014 55.961 19.7974 56.5108 19.2641C57.816 17.9889 58.8333 16.5122 59.5626 14.8603C60.3368 13.1152 61.7393 12.2315 63.426 11.5342C64.5555 11.068 65.5952 10.4453 65.5728 8.87173C65.5503 6.95135 69.0472 4.63944 70.7564 5.53064C71.7288 6.03777 73.6063 5.57539 73.5539 7.5778C73.5502 7.65984 73.6437 7.41 73.6437 7.36898C73.6138 6.85813 74.1598 6.89914 74.3244 6.6605C75.9064 4.3896 78.2027 4.27401 80.6038 4.54249C81.6323 4.65808 82.687 4.45672 83.4874 4.08384C85.7762 3.02483 88.2558 3.29704 90.5372 3.24856C92.5942 3.20382 94.9542 4.28147 96.5586 5.89234C98.1182 7.46221 99.6553 7.70831 101.727 7.19373C104.162 6.58592 106.522 5.99676 108.557 4.41198C109.233 3.88248 110.243 3.87502 110.95 4.54249C111.59 5.1503 112.431 5.41878 113.067 5.91845C115.326 7.6934 117.499 6.93643 119.747 6.03031C121.22 5.43742 122.697 4.84826 124.339 4.90046C125.054 4.92283 125.843 4.56859 125.981 3.99061C126.307 2.6072 127.832 2.70042 128.442 1.71972C128.644 1.39904 129.007 1.61531 129.231 1.85023C130.817 3.51704 133.27 3.0472 135.043 4.17333C136.98 5.40386 139.251 5.53437 141.345 6.00048C144.057 6.60456 146.974 6.85813 149.741 5.79539C150.968 5.32556 152.299 5.21742 153.373 4.21808C154.158 3.48721 155.082 4.42689 155.725 4.85572C156.761 5.54556 157.393 5.27335 158.138 4.51639C158.594 4.054 158.934 3.35297 159.761 3.41264C161.994 3.56925 163.976 3.08449 165.58 0.574954C165.707 2.84212 166.104 4.38588 167.114 5.70963C167.256 5.8998 167.319 6.31744 167.45 6.33235C169.462 6.55236 170.349 8.79715 172.35 9.01342C174.018 9.19614 174.279 10.8107 175.177 11.7803C178.15 14.9834 177.462 18.8801 177.208 22.6723C177.185 23.0229 176.935 23.4032 177.271 23.6456C178.865 24.8015 179.542 26.6995 180.914 28.0345C181.602 28.7057 182.148 28.1463 182.526 27.8368C184.71 26.0507 186.962 25.0514 189.774 26.4721C190.44 26.8077 191.218 26.4982 191.741 25.8046C192.317 25.0402 192.878 24.2273 193.6 23.6232C194.954 22.4933 196.293 21.2628 198.271 22.7432C199.225 23.4591 200.429 23.6307 201.278 22.2957C201.477 21.9862 201.765 21.7588 202.329 21.7625C205.003 21.7774 207.674 21.9527 210.142 20.3418C211.182 19.6669 212.596 19.2567 214.021 19.4282C215.3 19.5811 216.534 19.5102 217.503 18.4102C218.161 17.6644 218.901 17.795 219.601 18.4699C221.175 19.9987 222.881 21.2143 225.083 21.8744C226.355 22.2584 227.552 23.351 228.431 24.4175C229.04 25.1595 229.874 25.0402 230.548 25.5473C232.545 27.05 232.474 29.5111 233.76 31.301C234.46 32.2817 235.339 33.1841 235.69 34.4444C235.843 34.9814 236.558 35.3058 237.287 35.5295C240.081 36.376 240.324 37.215 239.419 39.6201Z" fill="#2E438E"/>
<path d="M165.225 235.953C164.653 237.091 164.294 238.09 163.063 238.579C162.801 238.683 162.484 238.735 162.386 239.127C161.78 241.595 159.387 242.736 158.175 244.705C157.203 246.282 155.191 245.589 154.297 246.995C154.14 247.241 153.653 247.356 153.612 247.588C153.156 250.164 149.794 249.564 149.001 251.794C148.907 252.055 148.245 252.099 147.868 252.282C147.539 252.439 146.966 252.659 146.966 252.842C147.019 254.963 145.381 255.627 143.982 256.589C143.544 256.887 142.897 257.782 143.552 258.327C144.158 258.823 144.58 260.307 145.889 259.251C146.058 259.114 146.379 259.184 146.592 259.076C147.116 258.811 147.797 258.569 148.088 259.114C148.515 259.919 147.576 259.792 147.194 260.083C146.102 260.918 145.302 262.067 144.083 262.798C143.361 263.226 143.784 263.782 144.397 263.998C144.853 264.155 145.403 264.047 145.848 264.218C146.188 264.349 146.749 264.431 146.671 265.046C146.585 265.725 146.043 265.49 145.657 265.535C143.219 265.826 142.961 266.329 144.202 268.473C144.812 269.525 144.745 270.804 145.429 271.874C145.583 272.12 144.55 273.086 144.098 273.746C142.92 275.468 143.099 278.493 144.382 279.977C144.595 280.219 144.741 280.543 145.059 280.443C147.471 279.686 147.868 281.811 149.102 283.169C148.283 283.433 147.546 283.534 146.978 283.896C146.316 284.313 146.319 285.156 146.222 285.891C143.634 284.366 143.26 284.44 141.192 286.987C141.109 285.783 140.395 285.51 139.438 285.734C138.671 285.913 137.938 286.29 137.164 286.383C136.188 286.502 135.178 286.495 135.645 284.932C135.989 283.784 135.271 282.99 134.49 282.274C133.659 281.509 132.941 282.091 132.175 282.434C131.378 282.792 130.679 283.262 130.013 283.817C129.269 284.436 128.352 284.407 127.608 283.907C126.905 283.437 127.395 282.9 127.746 282.337C128.334 281.401 127.294 280.73 126.879 280.405C125.641 279.447 124.216 278.731 123.255 277.43C122.896 276.945 122.335 277.187 121.867 277.09C119.1 276.535 118.453 276.203 117.888 273.768C117.749 273.171 117.271 272.974 116.822 272.869C114.488 272.314 112.48 271.05 110.341 270.058C108.725 269.308 106.825 269.584 105.235 268.29C104.297 267.526 103.926 269.39 103.021 270.002C102.333 268.492 100.822 268.003 99.5133 267.254C98.8289 266.862 98.1706 266.967 97.4526 267.425C96.3081 268.152 95.4965 267.996 95.0926 266.441C94.6962 264.912 93.4508 263.92 91.9286 263.734C89.7893 263.469 87.5752 263.45 85.6716 264.722C84.8413 265.274 83.9175 265.46 83.3004 264.908C82.803 264.464 83.0012 263.525 83.6482 262.936C83.7679 262.827 83.8315 262.611 83.8465 262.44C83.9811 260.859 80.6413 257.626 79.2051 258.192C75.8728 259.509 73.7186 257.838 71.8747 255.556C70.6406 254.031 69.1333 253.804 67.4616 254.024C63.7627 254.512 60.0713 255.139 56.6118 253.08C56.0209 252.726 55.3028 252.696 54.8092 252.901C51.9069 254.113 49.9995 252.457 48.0248 250.791C47.2245 250.116 46.5587 249.5 46.8318 248.333C46.9963 247.655 46.5812 247.196 46.1324 246.722C45.6761 246.241 45.0627 245.522 45.433 244.94C46.9552 242.546 44.4756 241.696 43.5293 240.611C42.5943 239.537 41.4462 238.377 40.0437 237.665C38.7796 237.024 39.247 235.588 39.5201 234.917C40.1783 233.313 39.2508 232.325 38.4953 231.408C37.7959 230.554 38.0428 230.058 38.4654 229.338C39.0787 228.294 39.636 227.235 39.7519 225.979C39.8941 224.468 39.722 223.309 37.8333 223.16C37.4893 223.133 36.8572 223.204 36.73 222.44C36.4121 220.564 35.1256 220.587 33.6819 221.064C33.4688 221.135 33.4089 221.485 33.0723 221.351C32.7619 221.228 30.6189 217.991 30.8096 217.764C31.9541 216.418 32.1972 214.359 34.1906 213.658C34.9049 213.409 35.8923 213.215 35.4884 211.872C34.7441 209.396 35.4285 208.524 38.1288 208.128C41.046 207.703 41.0834 207.655 41.2405 204.728C41.2592 204.366 41.3302 204.001 41.4162 203.643C41.9024 201.659 41.5434 201.323 39.4415 201.73C38.974 201.819 38.4729 201.745 37.9568 201.745C38.5739 199.037 37.1452 197.542 34.228 198.277C31.9279 198.851 31.1612 196.617 29.4183 196.356C29.1491 196.315 29.28 195.726 29.5118 195.391C30.8732 193.418 32.3056 191.483 33.5398 189.432C34.0746 188.541 34.7478 188.805 35.4285 188.735C36.7113 188.6 38.0278 188.57 38.6599 187.109C38.8057 186.766 39.1124 186.438 38.9478 186.08C37.8109 183.596 39.4191 181.922 40.6832 180.158C41.0011 179.718 41.6107 179.397 41.2367 178.752C40.2681 177.089 41.9436 176.302 42.3699 175.098C42.8636 173.703 43.8959 173.099 45.1675 172.693C45.3208 172.641 45.5751 172.477 45.605 172.514C46.9552 174.14 48.6831 172.253 50.1903 173.017C50.856 173.353 51.4245 172.585 51.6937 171.94C52.7409 169.464 55.0971 167.991 56.4286 165.806C57.3636 164.273 59.4393 164.463 60.1012 162.785C60.1648 162.621 60.7894 162.662 61.1559 162.636C61.7693 162.591 62.6519 162.934 62.6706 161.901C62.6856 161.2 62.2181 160.686 61.5561 160.261C60.8118 159.787 59.9479 160.324 59.1289 159.701C60.1761 158.59 61.2494 157.468 59.8357 155.883C59.5515 155.562 60.307 155.357 60.6062 155.23C61.0363 155.051 61.5972 155.227 61.6047 155.738C61.6159 156.286 60.9988 156.938 62.1283 157.039C63.0633 157.125 63.4523 156.394 63.4972 155.816C63.6393 154.015 64.1404 153.735 65.9955 154.283C67.4728 154.72 67.0988 152.933 66.938 152.135C66.7697 151.315 66.5004 150.968 67.5775 150.551C68.9576 150.01 69.1184 147.198 68.0787 145.927C67.4616 145.177 66.9604 144.335 66.7061 143.965C68.0375 144.003 68.2245 143.745 67.4915 141.903C66.7435 140.032 66.9267 137.22 67.8842 137.175C68.8491 137.13 68.4414 136.523 68.3218 136.519C66.6911 136.489 67.6673 135.273 67.4354 134.636C67.3718 134.457 67.3419 134.028 67.6598 134.024C70.1693 134.009 68.2918 132.824 68.0936 132.216C67.9889 131.884 67.7196 131.552 67.7682 131.198C68.1235 128.629 66.2835 127.678 64.4733 126.708C62.6931 125.75 61.7693 124.128 61.0662 122.342C60.9502 122.043 60.4603 121.719 60.8642 121.387C61.212 121.104 61.7169 121.148 62.0947 121.398C62.5435 121.7 62.9511 122.323 63.5159 121.797C63.9534 121.391 63.9273 120.846 63.7702 120.157C63.3027 118.094 63.8412 116.364 65.816 115.134C67.0015 114.395 68.4489 113.575 67.8169 111.666C67.7121 111.349 68.0039 110.983 68.2806 110.935C70.2105 110.611 69.7878 109.13 69.743 107.918C69.7205 107.333 69.7691 106.915 70.087 106.39C70.8089 105.204 70.2479 104.189 68.8267 104.111C67.8169 104.052 66.9043 103.966 66.6986 102.81C66.4966 101.695 66.8145 101.08 68.0787 100.476C70.289 99.4165 71.8673 97.7049 71.5942 94.7778C71.396 92.712 72.5816 90.7841 73.2772 88.8675C73.7111 87.6705 75.3193 87.7488 76.4899 87.9651C78.3749 88.3156 80.099 89.1434 81.5389 90.4224C82.8928 91.6268 84.4374 92.2011 86.2176 92.1489C87.9567 92.0967 88.9366 92.9432 89.4826 94.5428C90.096 96.3327 91.2068 97.5558 93.1553 98.2009C95.1861 98.8758 96.7457 100.475 98.4175 101.796C100.59 103.518 102.677 105.166 105.785 104.935C106.859 104.857 107.756 104.973 108.665 104.253C109.088 103.921 110.165 103.794 110.288 104.395C110.479 105.334 111.679 106.155 110.789 107.277C110.486 107.657 110.24 108.082 109.944 108.47C109.402 109.19 110.075 109.764 110.442 109.578C112.222 108.679 113.441 110.957 115.311 110.245C115.939 110.003 116.025 111.864 115.816 112.568C115.348 114.134 116.508 114.243 117.26 115.011C119.283 117.084 122.372 115.958 124.455 117.733C124.919 118.128 125.233 118.326 125.45 118.963C125.828 120.063 126.254 121.309 127.948 121.167C128.532 121.119 129.007 121.846 129.082 122.454C129.422 125.273 131.101 127.279 133.147 128.979C134.262 129.908 135.78 129.483 137.111 129.333C137.624 129.277 138.125 128.99 138.334 129.587C138.907 131.239 140.41 131.888 141.693 132.738C142.381 133.193 142.86 133.76 143.387 134.356C143.956 134.998 144.225 135.87 145.246 136.239C146.671 136.758 146.712 138.037 145.272 138.637C144.341 139.025 143.888 139.86 143.051 140.207C142.572 140.408 142.46 140.77 142.635 141.068C143.952 143.294 141.715 143.794 140.694 144.603C140.07 145.099 139.483 145.334 139.595 146.184C139.808 147.814 139.449 149.126 137.889 149.999C137.209 150.383 137.055 151.211 137.564 151.778C138.753 153.105 139.266 154.44 138.207 156.073C138.091 156.248 138.069 156.711 138.159 156.759C139.883 157.688 138.607 159.317 139 160.291C139.827 162.341 138.675 163.367 138.069 164.933C137.56 166.261 137.138 167.965 137.332 169.594C137.534 171.28 136.644 172.417 135.084 172.637C133.517 172.857 134.183 174.412 133.267 175.049C132.608 175.504 132.175 176.116 131.247 176.064C129.77 175.978 129.153 177.257 128.465 178.171C128.027 178.749 128.502 179.42 129.299 179.905C131.632 181.321 133.932 182.817 136.09 184.476C137.145 185.285 137.493 186.665 137.743 188.019C138.106 189.984 139.097 190.618 141.083 190.454C141.427 190.427 141.801 190.491 142.127 190.606C143.469 191.084 144.438 191.218 144.618 189.26C144.734 187.978 146.431 188.03 146.772 188.515C148.126 190.427 151.163 190.196 151.948 192.889C152.206 193.776 153.769 193.806 154.809 193.44C155.321 193.261 155.666 193.168 156.155 193.504C158.478 195.092 159.05 195.018 160.696 193.034C161.421 194.801 162.11 196.588 162.895 198.329C163.086 198.758 163.314 199.358 163.082 199.53C161.302 200.868 162.053 202.49 162.828 203.762C164.021 205.723 163.194 208.229 164.776 210.019C164.888 210.146 164.761 210.616 164.604 210.821C162.902 213.062 163.452 215.758 163.217 218.245C162.932 221.213 163.377 224.248 163.071 227.213C162.85 229.364 164.877 230.867 164.282 232.978C164.282 233.004 164.368 233.06 164.421 233.09C165.633 233.787 166.003 234.41 165.225 235.953Z" fill="#F2F2F2"/>
<path d="M211.141 70.4465C211.72 71.3303 212.035 72.1842 211.391 73.1649C211.115 73.5825 211.201 73.9368 211.339 74.47C211.967 76.8938 212.962 79.3586 211.518 81.8607C211.272 82.2932 211.384 82.7705 211.627 83.2627C212.394 84.799 211.78 85.7573 210.06 85.8058C209.387 85.8245 208.732 85.7872 208.081 86.1489C206.933 86.7865 205.751 86.6635 204.532 86.175C203.578 85.7946 202.961 85.556 201.869 86.7828C200.411 88.4123 200.729 90.1537 200.179 91.8131C199.438 94.0355 199.509 96.5674 197.606 98.361C196.633 99.2783 195.564 100.181 196.338 101.866C196.517 102.254 195.859 103.063 195.523 103.641C194.98 104.577 194.191 105.42 194.887 106.639C195.074 106.964 194.868 107.348 194.558 107.627C192.489 109.477 191.82 111.457 193.944 113.75C194.569 114.425 193.791 114.839 193.417 115.051C191.012 116.424 188.802 117.971 187.328 120.406C186.707 121.432 185.974 121.454 185.66 120.175C185.511 119.571 185.324 119.31 184.706 119.37C184.123 119.425 183.715 119.713 183.745 120.291C183.899 123.359 182.365 125.295 179.931 127.021C179.295 127.472 178.547 128.811 178.057 129.889C177.586 130.933 176.89 131.887 176.22 132.831C175.416 133.961 174.306 133.879 173.954 132.521C173.587 131.101 172.705 130.191 171.762 129.236C171.594 129.068 171.545 128.755 171.362 128.636C170.42 128.024 170.902 126.011 169.604 126.197C168.034 126.425 166.934 127.939 166.309 129.292C165.733 130.538 165.086 130.791 163.86 130.996C162.323 131.25 160.157 130.914 160.082 133.58C160.056 134.382 157.7 135.158 156.761 134.815C156.533 134.733 156.324 134.598 156.099 134.505C153.556 133.435 153.601 133.472 151.854 135.81C151.462 136.336 150.661 136.713 149.988 136.839C147.796 137.257 145.897 136.489 144.535 134.8C143.596 133.636 142.695 132.484 141.356 131.794C140.133 131.168 140.825 130.053 140.545 129.195C140.223 129.575 140.855 130.493 139.868 130.534C139.03 130.567 138.966 129.937 138.768 129.314C138.54 128.599 138.23 128.054 137.16 128.572C135.694 129.277 134.183 128.856 132.967 127.838C131.228 126.372 130.035 124.519 129.777 122.222C129.691 121.447 129.078 120.977 128.958 120.238C128.906 119.918 128.547 119.545 127.978 120.044C127.421 120.533 126.105 120.026 126.22 119.381C126.669 116.853 124.496 117.061 123.258 116.483C121.213 115.529 119.032 114.865 116.93 114.033C116.291 113.78 116.373 113.124 116.414 112.575C116.485 111.561 116.201 110.506 116.713 109.272C113.269 110.424 112.259 108.746 111.773 105.55C111.429 103.305 110.052 103.007 107.973 104.07C107.124 104.502 106.286 104.357 105.785 103.917C105.22 103.425 105.535 102.545 105.927 101.874C106.327 101.191 106.709 100.498 107.117 99.819C107.498 99.1888 107.797 98.7227 107.143 97.921C106.428 97.041 107.382 96.1684 107.756 95.3257C108.25 94.2182 108.414 95.4674 108.77 95.4674C109.802 95.4748 110.756 95.0646 111.036 94.1958C111.728 92.048 113.849 91.5222 115.341 90.4371C116.283 89.751 116.942 89.3595 116.818 88.1886C117.903 87.9201 118.15 89.654 119.283 89.0611C120.446 88.4533 119.53 87.413 119.874 86.5106C120.577 87.1855 121.332 87.8157 122.234 86.8947C122.978 86.1377 123.307 87.0401 123.771 87.2787C125.304 88.0693 125.682 87.8642 125.768 86.1862C125.805 85.4367 125.33 84.3031 127.047 84.9295C128.158 85.3397 128.861 84.2136 128.307 83.0464C127.941 82.2671 127.683 81.2118 128.233 80.8352C128.977 80.3244 130.11 80.3057 130.952 81.1074C132.014 82.118 132.605 81.9725 132.9 80.4511C133.098 79.422 133.79 78.9894 134.991 78.9932C136.109 79.0006 137.22 78.5196 137.373 77.028C137.478 75.9765 140.144 74.0337 141.139 74.3283C141.749 74.5073 142.149 74.6676 142.538 74.0598C142.942 73.4297 142.964 72.8218 142.523 72.214C142.377 72.0164 142.201 71.8411 142.041 71.651C141.738 71.2967 141.192 71.032 141.745 70.4354C142.276 69.8648 142.822 70.3459 143.032 70.592C144.322 72.1059 144.733 70.8194 144.767 69.932C144.819 68.6306 145.956 68.3211 146.484 68.4628C148.679 69.0519 148.234 67.4299 148.328 66.4044C148.365 65.9756 148.357 65.5393 148.758 65.7295C151.091 66.8519 153.077 65.2037 154.607 64.3163C157.154 62.8396 159.028 63.7234 161.13 64.6332C161.545 64.8122 161.96 65.0397 162.345 64.9129C164.454 64.223 165.625 66.3038 167.095 66.5424C168.83 66.8295 170.012 69.4547 172.189 67.8251C172.402 67.6648 173.292 68.3099 173.804 68.6716C174.609 69.2347 175.394 69.313 175.817 68.3696C176.329 67.2248 177.234 67.5343 178.038 67.5902C178.872 67.6499 178.898 68.3696 178.85 69.0072C178.809 69.5553 179.104 69.8238 179.557 69.9208C180.454 70.1109 181.251 70.5099 182.051 70.9388C182.769 71.3228 183.596 70.6069 183.629 70.3086C183.79 68.9438 185.178 68.8953 185.664 68.9624C187.867 69.2794 189.83 68.9289 191.794 67.937C193.02 67.3217 194.528 67.4672 195.683 66.479C196.424 65.8488 197.546 66.0204 198.44 65.7295C201.271 64.8197 204.304 64.4617 206.832 62.6532C208.156 61.706 212.233 62.1237 213.374 63.1193C213.777 63.4698 213.744 63.9695 213.553 64.3051C212.895 65.4573 212.334 66.7661 211.376 67.6163C210.224 68.6418 210.501 69.477 211.141 70.4465Z" fill="#F2F2F2"/>
<path d="M239.419 39.6199C239.079 40.5148 238.727 41.3948 238.551 42.6552C237.366 40.6975 235.791 40.8168 234.116 41.3165C233.521 41.4955 232.938 41.4396 232.309 41.2531C231.314 40.9585 230.293 40.787 229.328 41.5701C228.838 41.9653 228.173 42.0511 227.462 41.8572C226.897 41.7043 226.277 41.7155 225.723 42.2114C225.117 42.7559 224.523 43.0616 223.502 42.6291C222.05 42.0138 221.531 44.0013 221.635 44.3817C222.215 46.5444 220.229 47.1932 219.425 48.435C217.906 50.7842 216.508 53.249 214.365 55.1731C213.867 55.6205 213.729 56.6124 213.68 57.3694C213.617 58.365 213.538 59.2972 213.033 60.1996C212.584 61.005 213.007 61.6725 213.721 62.2729C211.339 60.8857 208.904 61.5942 206.556 62.0081C205.355 62.2169 204.353 63.1454 203.104 63.5891C200.789 64.4095 198.38 64.8421 196.061 65.5916C192.8 66.6506 189.853 68.914 186.019 68.0713C185.069 67.8587 183.682 68.7947 183.027 69.7866C182.47 70.6218 181.98 70.3384 181.576 69.9842C180.806 69.313 179.411 69.4659 179.265 67.8587C179.183 66.9899 176.307 66.8296 175.499 67.5567C175.274 67.7543 174.971 68.2242 174.908 68.1943C173.449 67.4001 171.508 67.8438 170.349 67.1838C168.363 66.0502 165.98 65.6139 164.294 63.962C164.174 63.8464 164.088 63.5183 163.92 63.7383C162.618 65.4126 161.635 63.9136 160.546 63.4363C160.494 63.4139 160.374 63.44 160.37 63.4214C160 61.9484 158.661 61.941 157.898 62.4257C156.847 63.0932 155.636 62.9068 154.637 63.5444C153.321 64.3797 151.507 64.1821 150.396 65.4946C148.245 64.458 147.748 65.5058 147.557 67.4672C147.505 67.993 146.211 67.5716 145.493 67.6089C144.412 67.6685 142.92 67.1801 144.3 69.1154C144.535 69.4472 144.483 69.8015 144.247 70.1445C143.914 70.6293 143.567 70.2601 143.305 70.1222C142.587 69.7381 142.026 68.9252 141.095 69.9171C140.118 70.9537 141.311 71.4347 141.513 72.1581C141.641 72.6093 142.321 72.7995 142.145 73.4819C139.337 73.4185 137.5 74.787 136.494 77.3972C136.274 77.964 135.776 78.3966 135.032 78.3518C133.147 78.2362 132.156 79.1573 132.033 81.0851C131.356 80.3691 130.664 79.8657 129.684 79.8322C127.496 79.7576 126.621 81.0664 127.634 83.0017C127.81 83.3373 128.098 83.6282 127.937 84.0123C127.75 84.4523 127.272 84.3851 126.961 84.2919C125.428 83.8407 124.826 84.4001 124.99 85.9401C125.02 86.2272 124.941 86.5255 124.87 87.2228C123.737 86.1191 122.866 85.2577 121.684 86.5032C121.519 86.6747 121.108 86.5293 120.835 86.3092C120.45 85.9997 120.233 85.3733 119.477 85.7648C118.662 86.1862 119.133 86.8499 119.036 87.3981C118.987 87.674 119.096 87.9761 119.137 88.2893C118.632 88.3825 118.168 88.114 118.026 87.8381C117.72 87.234 117.278 87.234 116.792 87.3496C116.175 87.4988 116.403 88.0618 116.418 88.4384C116.444 89.1842 116.123 89.3147 115.431 89.6131C113.362 90.508 111.478 91.7422 110.389 93.8714C110.008 94.6172 109.391 94.7962 108.643 94.304C107.782 93.7335 107.326 94.0504 107.034 94.9715C106.799 95.7135 106.709 96.5339 106.069 97.1118C105.961 97.2125 105.897 97.563 105.961 97.6152C108.044 99.3193 105.568 100.259 105.292 101.557C105.217 101.907 104.944 102.213 104.847 102.56C104.39 104.167 103.343 104.577 101.929 103.578C100.041 102.25 98.1669 100.9 96.3679 99.4573C95.2085 98.5288 94.0641 97.6861 92.613 97.2349C91.4723 96.8769 90.657 95.9037 90.3017 94.8484C89.4901 92.447 88.1213 91.0822 85.4285 91.3917C83.925 91.5632 82.7319 90.6385 81.7745 89.7771C80.1513 88.3154 78.1056 87.8791 76.2318 87.1035C74.5189 86.3913 72.3198 88.2707 71.8897 90.4148C71.4745 92.5104 70.6031 94.4643 70.6517 96.7203C70.6817 98.2491 69.3465 99.4909 67.772 99.9234C66.2236 100.352 65.7 101.258 65.9132 102.728C66.1226 104.141 67.0801 104.749 68.404 104.823C69.5485 104.887 69.8626 105.327 69.2754 106.333C69.2118 106.438 69.0922 106.583 69.1221 106.654C70.2778 109.454 66.3769 110.622 66.9417 113.295C67.0127 113.635 66.1451 114.321 65.5878 114.611C63.1344 115.887 62.3527 117.759 63.269 120.365C63.3438 120.57 63.2353 120.842 63.2129 121.048C62.7005 121.353 62.5173 120.913 62.2255 120.738C61.5935 120.365 60.9053 120.287 60.3256 120.742C59.7085 121.227 60.0713 121.831 60.277 122.416C61.3055 125.366 63.2353 127.416 66.2647 128.297C66.9043 128.483 66.7397 128.673 66.8557 129.191C67.1324 130.441 66.4817 131.947 67.742 132.958C67.828 133.028 67.9103 133.263 67.9103 133.263C65.9057 134.371 67.5887 136.425 66.6724 137.962C65.7486 139.517 66.8931 141.333 67.196 143.093C66.9192 143.372 66.4667 143.193 66.059 143.238C65.6364 143.279 65.3372 143.503 65.2325 143.865C65.1053 144.293 65.4831 144.622 65.7785 144.745C66.7023 145.136 67.1848 145.945 67.6298 146.706C68.591 148.354 68.3255 149.271 66.6649 150.297C66.0329 150.688 65.7711 151.046 66.059 151.788C66.2685 152.333 66.3246 152.937 66.5639 154.067C65.8982 153.075 64.8398 153.705 64.6715 152.635C64.4695 153.347 63.2877 153.086 63.3027 153.981C63.3101 154.585 62.9698 155.007 62.6182 155.596C62.0572 155.074 61.7319 154.141 60.7557 154.425C60.1199 154.611 59.2597 154.649 58.9194 155.081C58.4706 155.655 58.9568 156.338 59.5215 156.83C60.2321 157.453 59.903 158.001 59.3532 158.553C58.9343 158.97 58.1677 159.351 58.508 160.048C58.8147 160.671 59.5589 160.801 60.2658 160.771C60.9951 160.742 61.4925 161.148 62.147 161.678C58.1452 161.946 56.2827 164.862 54.2855 167.383C53.0887 168.893 51.2113 169.937 50.7662 172.115C50.6877 172.51 49.1767 172.599 48.4736 171.842C48.2716 171.626 48.0996 171.32 48.051 171.037C47.5536 167.961 45.2871 166.976 42.6542 166.943C40.7131 166.92 38.6973 166.812 36.8048 167.204C35.6454 167.442 35.1742 166.961 34.6955 166.32C32.7282 163.672 32.8741 160.275 35.0695 157.706C36.2102 156.371 36.0568 154.283 34.0372 152.669C32.1373 151.151 32.6011 149.477 32.7282 147.817C32.803 146.807 32.631 145.957 32.3729 145.058C32.3019 144.804 31.9017 144.696 32.1261 144.293C33.1508 142.466 31.4043 140.967 31.4753 139.245C31.4828 139.099 31.3519 138.86 31.2247 138.808C29.1677 137.958 28.2926 135.542 26.0449 134.953C25.7569 134.878 25.3941 134.61 25.2034 134.706C24.1898 135.199 23.0117 135.079 22.6527 134.233C22.1665 133.077 22.1066 131.679 22.8546 130.426C23.7747 128.882 24.6835 127.372 24.8406 125.463C24.9902 123.684 26.359 122.438 27.5521 121.227C28.3113 120.458 28.6703 119.414 29.1266 118.564C29.7026 117.483 28.5095 116.312 27.4698 115.689C25.9813 114.805 24.5638 113.262 22.5405 114.824C22.0655 115.186 21.6017 114.567 21.3399 113.996C21.0707 113.407 20.8313 112.766 20.0459 112.546C17.5027 111.826 16.0591 109.794 14.5332 107.858C14.3237 107.594 14.3611 107.016 13.8487 107.094C11.8067 107.407 11.0437 106.091 10.3967 104.532C10.2696 104.223 9.91052 103.887 9.59262 103.794C6.54079 102.918 4.46883 100.546 1.95556 98.8569C0.489482 97.8725 -0.0116766 96.7725 1.4918 95.3294C2.61754 94.2443 2.89804 92.8385 2.73722 91.291C2.6699 90.6571 2.5016 89.9449 3.07382 89.3558C4.12102 88.2856 4.76429 87.1371 3.6049 85.7126C3.29074 85.3286 3.47026 84.8923 3.76946 84.5268C5.09715 82.9048 4.94381 80.6413 6.18549 78.9932C6.69413 78.3145 5.45619 78.3667 5.81523 77.7887C6.20419 77.4233 6.44355 77.8186 6.69413 78.0535C7.01951 78.3518 7.30001 78.4227 7.64409 78.0759C8.00313 77.7142 7.66653 77.5128 7.47953 77.3226C7.10927 76.9572 7.04195 76.2972 7.25887 76.1368C9.03537 74.8317 7.80117 74.0636 6.85121 73.15C6.60063 72.9076 5.56465 72.2886 6.91853 72.0351C8.07419 71.8225 8.36217 71.0246 8.38087 69.9134C9.47669 70.4428 10.3743 71.6174 11.7543 70.3459C12.4238 69.7306 11.5524 68.3435 12.8427 68.3808C13.5869 68.4031 14.2153 69.0818 15.0904 69.0594C16.9866 69.0072 18.8005 68.9476 19.2942 66.5574C19.3465 66.3001 19.7056 66.1099 19.9075 65.875C21.7027 63.7644 21.7214 62.8247 19.9412 60.6881C19.4774 60.1362 18.9202 59.6589 18.2245 58.9579C20.865 59.3867 22.3797 57.5036 24.3319 56.6422C25.5325 56.1165 26.5946 55.0612 28.0158 55.2663C29.4632 55.4714 30.0653 54.7405 30.3122 53.5398C30.5254 52.4883 30.8133 52.1154 32.0588 52.4883C35.2228 53.4354 38.0802 53.0327 40.01 49.4641C40.4289 52.2757 42.153 52.41 44.1726 52.2869C45.893 52.1825 47.6246 52.2421 49.3263 51.8879C50.755 51.5896 50.856 50.3292 51.1327 49.3075C51.3796 48.3977 51.4357 47.4468 51.0953 46.44C50.7961 45.5637 50.7924 44.5979 51.4656 43.6433C52.6287 42.0064 51.6301 39.2395 49.7153 38.4714C48.5372 37.9978 47.4975 37.7256 47.8565 35.9208C48.0622 34.8879 47.5536 33.277 45.9454 33.3852C44.2885 33.497 43.4695 31.5245 41.7341 31.957C41.5733 31.9943 40.1671 31.5207 41.0983 30.3424C41.4387 29.9136 41.7491 29.2051 42.052 28.6234C42.4672 27.8254 43.4321 27.6576 43.8958 28.3549C44.7486 29.6451 45.6275 29.1231 46.5849 28.7203C50.3137 27.1542 52.5838 23.9735 54.9961 20.9978C55.4786 20.4012 55.9611 19.7971 56.5108 19.2639C57.8161 17.9886 58.8334 16.512 59.5627 14.8601C60.3368 13.115 61.7393 12.2312 63.4261 11.5339C64.5556 11.0678 65.5953 10.4451 65.5728 8.87148C65.5504 6.9511 69.0473 4.63919 70.7565 5.5304C71.7289 6.03753 73.6063 5.57514 73.554 7.57755C73.5502 7.65959 73.6437 7.40975 73.6437 7.36874C73.6138 6.85788 74.1599 6.8989 74.3244 6.66025C75.9064 4.38936 78.2028 4.27376 80.6039 4.54224C81.6324 4.65784 82.687 4.45648 83.4874 4.08359C85.7763 3.02459 88.2559 3.29679 90.5373 3.24832C92.5943 3.20357 94.9542 4.28122 96.5587 5.8921C98.1183 7.46196 99.6554 7.70807 101.727 7.19348C104.162 6.58567 106.522 5.99651 108.557 4.41173C109.234 3.88223 110.243 3.87477 110.95 4.54224C111.59 5.15005 112.431 5.41853 113.067 5.9182C115.326 7.69315 117.499 6.93619 119.747 6.03007C121.22 5.43717 122.697 4.84801 124.339 4.90021C125.054 4.92259 125.843 4.56834 125.981 3.99037C126.307 2.60695 127.833 2.70017 128.442 1.71947C128.644 1.39879 129.007 1.61507 129.231 1.84999C130.817 3.5168 133.27 3.04696 135.043 4.17308C136.981 5.40361 139.251 5.53413 141.345 6.00024C144.057 6.60432 146.974 6.85788 149.741 5.79515C150.968 5.32531 152.3 5.21717 153.373 4.21783C154.158 3.48697 155.082 4.42665 155.725 4.85547C156.761 5.54531 157.393 5.2731 158.138 4.51614C158.594 4.05376 158.934 3.35273 159.761 3.41239C161.994 3.569 163.976 3.08425 165.58 0.574707C165.707 2.84187 166.104 4.38563 167.114 5.70938C167.256 5.89956 167.319 6.31719 167.45 6.33211C169.462 6.55211 170.349 8.7969 172.35 9.01318C174.018 9.19589 174.279 10.8105 175.177 11.78C178.15 14.9831 177.462 18.8798 177.208 22.6721C177.185 23.0226 176.935 23.403 177.271 23.6453C178.865 24.8013 179.542 26.6993 180.914 28.0342C181.602 28.7054 182.148 28.1461 182.526 27.8366C184.71 26.0505 186.962 25.0511 189.774 26.4718C190.44 26.8074 191.218 26.4979 191.741 25.8043C192.317 25.0399 192.878 24.227 193.6 23.623C194.954 22.4931 196.293 21.2626 198.272 22.7429C199.225 23.4589 200.429 23.6304 201.278 22.2955C201.477 21.986 201.765 21.7585 202.329 21.7622C205.004 21.7772 207.674 21.9524 210.142 20.3415C211.182 19.6666 212.596 19.2564 214.021 19.428C215.3 19.5808 216.534 19.51 217.503 18.41C218.161 17.6642 218.901 17.7947 219.601 18.4696C221.175 19.9985 222.881 21.2141 225.084 21.8741C226.355 22.2582 227.552 23.3507 228.431 24.4172C229.04 25.1593 229.874 25.0399 230.548 25.5471C232.545 27.0498 232.474 29.5109 233.76 31.3007C234.46 32.2814 235.339 33.1838 235.69 34.4442C235.843 34.9811 236.558 35.3056 237.287 35.5293C240.081 36.3757 240.324 37.2147 239.419 39.6199Z" fill="#F2F2F2"/>
<path d="M88.4643 83.2913L84.3908 87.7907L80.3173 83.2913C79.5116 82.4014 78.963 81.2676 78.7407 80.0332C78.5184 78.7989 78.6325 77.5195 79.0685 76.3568C79.5045 75.1941 80.2429 74.2003 81.1903 73.5011C82.1376 72.8019 83.2514 72.4287 84.3908 72.4287C85.5301 72.4287 86.6439 72.8019 87.5913 73.5011C88.5386 74.2003 89.277 75.1941 89.713 76.3568C90.149 77.5195 90.2631 78.7989 90.0408 80.0332C89.8186 81.2676 89.2699 82.4014 88.4643 83.2913ZM84.3908 81.6199C85.0698 81.6199 85.721 81.3219 86.2012 80.7916C86.6813 80.2612 86.9511 79.5419 86.9511 78.7918C86.9511 78.0418 86.6813 77.3224 86.2012 76.7921C85.721 76.2617 85.0698 75.9637 84.3908 75.9637C83.7117 75.9637 83.0605 76.2617 82.5803 76.7921C82.1002 77.3224 81.8304 78.0418 81.8304 78.7918C81.8304 79.5419 82.1002 80.2612 82.5803 80.7916C83.0605 81.3219 83.7117 81.6199 84.3908 81.6199ZM84.3908 80.2058C84.0512 80.2058 83.7256 80.0569 83.4855 79.7917C83.2455 79.5265 83.1106 79.1668 83.1106 78.7918C83.1106 78.4168 83.2455 78.0571 83.4855 77.7919C83.7256 77.5268 84.0512 77.3778 84.3908 77.3778C84.7303 77.3778 85.0559 77.5268 85.296 77.7919C85.5361 78.0571 85.6709 78.4168 85.6709 78.7918C85.6709 79.1668 85.5361 79.5265 85.296 79.7917C85.0559 80.0569 84.7303 80.2058 84.3908 80.2058Z" fill="#17A8DF"/>
<path d="M111.977 35.3428H111.357L108.981 32.2153L107.739 33.3993V35.3428H107.249V29.5287H107.739V32.7869L111.177 29.5287H111.847L109.332 31.8968L111.977 35.3428ZM116.601 34.9671H116.732V35.3428H116.462C116.185 35.3428 115.989 35.2856 115.866 35.155C115.736 35.0325 115.67 34.8283 115.662 34.5507C115.531 34.8283 115.319 35.0488 115.042 35.2121C114.756 35.3754 114.429 35.4489 114.053 35.4489C113.604 35.4489 113.253 35.3428 113.008 35.1223C112.755 34.91 112.633 34.616 112.633 34.2404C112.633 33.53 113.09 33.1135 114.004 32.9829L115.066 32.844C115.262 32.8114 115.401 32.7624 115.482 32.6807C115.556 32.5991 115.597 32.4847 115.597 32.3296V32.2234C115.597 31.6927 115.213 31.4232 114.462 31.4232C114.086 31.4232 113.8 31.4967 113.621 31.6355C113.441 31.7825 113.335 32.0111 113.302 32.3214H112.812C112.878 31.4559 113.441 31.0149 114.494 31.0149C115.009 31.0149 115.401 31.1292 115.678 31.3415C115.956 31.562 116.095 31.8723 116.095 32.2643V34.3874C116.095 34.5997 116.128 34.7548 116.201 34.8365C116.275 34.9263 116.405 34.9671 116.601 34.9671ZM114.135 35.057C114.527 35.057 114.862 34.9508 115.131 34.7303C115.401 34.518 115.556 34.2241 115.597 33.8484V33.0727C115.515 33.1298 115.401 33.1707 115.254 33.187L114.086 33.3585C113.433 33.4565 113.114 33.7423 113.114 34.2241C113.114 34.4854 113.204 34.6895 113.384 34.8365C113.564 34.9835 113.808 35.057 114.135 35.057ZM119.404 31.513L118.342 31.4967V34.3792C118.342 34.5752 118.383 34.7222 118.465 34.8038C118.546 34.8855 118.677 34.9263 118.873 34.9263H119.396V35.3428H118.742C118.146 35.3428 117.852 35.0406 117.852 34.4364V31.4967L117.126 31.513V31.1292L117.852 31.1456V29.8799H118.342V31.1456L119.404 31.1292V31.513ZM122.301 31.0231C122.759 31.0231 123.11 31.1537 123.371 31.415C123.624 31.6763 123.755 32.0438 123.755 32.5011V35.3428H123.265V32.5909C123.265 31.8396 122.905 31.4559 122.203 31.4559C121.787 31.4559 121.452 31.5947 121.207 31.856C120.962 32.1255 120.84 32.5174 120.84 33.0319V35.3428H120.35V29.5287H120.84V31.8805C121.117 31.3089 121.607 31.0231 122.301 31.0231ZM129.502 31.0231C129.919 31.0231 130.237 31.1537 130.458 31.3987C130.678 31.6437 130.793 32.0111 130.793 32.4847V35.3428H130.303V32.4929C130.303 31.807 129.992 31.4559 129.372 31.4559C129.029 31.4559 128.751 31.5865 128.539 31.8478C128.326 32.1091 128.22 32.5011 128.22 33.0074V35.3428H127.73V32.4929C127.73 31.807 127.42 31.4559 126.799 31.4559C126.457 31.4559 126.179 31.5947 125.967 31.8641C125.754 32.1336 125.648 32.5256 125.648 33.0319V35.3428H125.158V31.1292H125.632L125.607 31.9295C125.869 31.3252 126.31 31.0231 126.93 31.0231C127.583 31.0231 127.992 31.3334 128.155 31.9458C128.408 31.3334 128.857 31.0231 129.502 31.0231ZM135.923 34.9671H136.054V35.3428H135.784C135.507 35.3428 135.311 35.2856 135.188 35.155C135.058 35.0325 134.992 34.8283 134.984 34.5507C134.853 34.8283 134.641 35.0488 134.364 35.2121C134.078 35.3754 133.751 35.4489 133.375 35.4489C132.926 35.4489 132.575 35.3428 132.33 35.1223C132.077 34.91 131.955 34.616 131.955 34.2404C131.955 33.53 132.412 33.1135 133.326 32.9829L134.388 32.844C134.584 32.8114 134.723 32.7624 134.804 32.6807C134.878 32.5991 134.919 32.4847 134.919 32.3296V32.2234C134.919 31.6927 134.535 31.4232 133.784 31.4232C133.408 31.4232 133.122 31.4967 132.943 31.6355C132.763 31.7825 132.657 32.0111 132.624 32.3214H132.134C132.2 31.4559 132.763 31.0149 133.816 31.0149C134.331 31.0149 134.723 31.1292 135 31.3415C135.278 31.562 135.417 31.8723 135.417 32.2643V34.3874C135.417 34.5997 135.45 34.7548 135.523 34.8365C135.597 34.9263 135.727 34.9671 135.923 34.9671ZM133.457 35.057C133.849 35.057 134.184 34.9508 134.453 34.7303C134.723 34.518 134.878 34.2241 134.919 33.8484V33.0727C134.837 33.1298 134.723 33.1707 134.576 33.187L133.408 33.3585C132.755 33.4565 132.436 33.7423 132.436 34.2241C132.436 34.4854 132.526 34.6895 132.706 34.8365C132.885 34.9835 133.13 35.057 133.457 35.057ZM138.84 31.0231C139.297 31.0231 139.649 31.1537 139.91 31.415C140.163 31.6763 140.294 32.0438 140.294 32.5011V35.3428H139.804V32.5909C139.804 31.8396 139.444 31.4559 138.742 31.4559C138.326 31.4559 137.991 31.5947 137.746 31.856C137.501 32.1255 137.378 32.5174 137.378 33.0319V35.3428H136.889V31.1292H137.346V31.9458C137.623 31.3334 138.122 31.0231 138.84 31.0231ZM144.686 31.8968V29.5287H145.176V35.3428H144.743V34.4445C144.612 34.7467 144.416 34.9835 144.155 35.1631C143.894 35.3428 143.592 35.4326 143.257 35.4326C142.693 35.4326 142.252 35.2285 141.926 34.8038C141.599 34.3955 141.436 33.8566 141.436 33.187C141.436 32.5337 141.599 32.0193 141.934 31.6273C142.261 31.2354 142.693 31.0394 143.24 31.0394C143.559 31.0394 143.845 31.1211 144.106 31.268C144.359 31.4232 144.555 31.6355 144.686 31.8968ZM143.298 35.008C143.722 35.008 144.057 34.8447 144.318 34.518C144.58 34.1914 144.71 33.7586 144.71 33.2033C144.71 32.6562 144.58 32.2316 144.326 31.9213C144.065 31.6192 143.722 31.464 143.298 31.464C142.873 31.464 142.538 31.6192 142.293 31.9131C142.048 32.2234 141.926 32.6481 141.926 33.187C141.926 33.7423 142.048 34.1914 142.293 34.518C142.538 34.8447 142.873 35.008 143.298 35.008ZM149.493 33.4401V31.1292H149.983V35.3428H149.517V34.5262C149.239 35.1468 148.741 35.4489 148.023 35.4489C147.565 35.4489 147.206 35.3264 146.953 35.0651C146.7 34.8038 146.577 34.4445 146.577 33.9709V31.1292H147.067V33.8811C147.067 34.6405 147.418 35.0161 148.121 35.0161C148.529 35.0161 148.864 34.8855 149.117 34.616C149.362 34.3547 149.493 33.9628 149.493 33.4401Z" fill="#2E438E"/>
<path d="M34.6602 60.0896H40.2946V61.383H38.2074V67.0664H36.7572V61.383H34.6602V60.0896ZM43.9127 61.8828C44.4321 61.8828 44.8338 62.0493 45.1278 62.3629C45.4218 62.6863 45.5687 63.1272 45.5687 63.676V67.0664H44.1871V63.9895C44.1871 63.7152 44.1185 63.5094 43.9911 63.3526C43.8637 63.2056 43.6873 63.1272 43.4522 63.1272C43.1582 63.1272 42.9132 63.2448 42.7368 63.4702C42.5507 63.6956 42.4625 63.9895 42.4625 64.3619V67.0664H41.0808V60.0896H42.4625V62.6863C42.7956 62.1571 43.2758 61.8828 43.9127 61.8828ZM51.5669 64.7147V64.9498H47.9021C47.9217 65.332 48.0393 65.626 48.2549 65.8415C48.4607 66.0571 48.735 66.1649 49.0878 66.1649C49.5777 66.1649 49.9011 65.9493 50.0677 65.5084L51.4395 65.6064C51.2632 66.1453 50.979 66.5569 50.587 66.8312C50.1853 67.1056 49.6953 67.2428 49.1172 67.2428C48.2941 67.2428 47.6571 66.988 47.1868 66.4785C46.7164 65.9689 46.4813 65.3222 46.4813 64.5187C46.4813 63.7544 46.7066 63.1272 47.1574 62.6275C47.6081 62.1375 48.2059 61.8828 48.9702 61.8828C49.7345 61.8828 50.3518 62.1375 50.8418 62.6471C51.3219 63.1664 51.5669 63.8524 51.5669 64.7147ZM49.7835 63.186C49.5875 62.99 49.3328 62.8921 49.0192 62.8921C48.7056 62.8921 48.4411 62.99 48.2451 63.186C48.0393 63.4016 47.9217 63.676 47.8923 64.0091H50.1363C50.0971 63.6564 49.9795 63.382 49.7835 63.186ZM59.1514 63.2742C60.0529 63.5094 60.5036 64.0875 60.5036 65.0184C60.5036 65.6162 60.2979 66.1061 59.9059 66.4785C59.5041 66.8704 58.9456 67.0664 58.2205 67.0664H54.9574V60.0896H58.2009C58.8378 60.0896 59.3474 60.2463 59.7197 60.5501C60.0921 60.8539 60.2881 61.2654 60.2881 61.7946C60.2881 62.1669 60.1901 62.4805 59.9941 62.7353C59.7981 62.99 59.5139 63.1762 59.1514 63.2742ZM57.9461 61.2654H56.4077V62.7843H57.8873C58.2107 62.7843 58.4557 62.7157 58.6222 62.5785C58.779 62.4413 58.8672 62.2551 58.8672 62.0101C58.8672 61.5202 58.5536 61.2654 57.9461 61.2654ZM56.4077 65.8415H57.9657C58.3283 65.8415 58.6026 65.7631 58.7986 65.5868C58.9848 65.4202 59.0828 65.185 59.0828 64.8812C59.0828 64.5873 58.9848 64.3619 58.8084 64.2051C58.6222 64.0483 58.3675 63.9601 58.0343 63.9601H56.4077V65.8415ZM64.0191 61.8338C64.1759 61.8338 64.3229 61.8632 64.46 61.9024V63.1664C64.2837 63.1566 64.1955 63.1468 64.1759 63.1468C63.3332 63.1468 62.9216 63.6368 62.9216 64.6069V67.0664H61.5399V62.0101H62.8922L62.8726 62.6863C63.0882 62.1179 63.4703 61.8338 64.0191 61.8338ZM66.6249 61.3438H65.2433V60.0896H66.6249V61.3438ZM66.6249 67.0664H65.2433V62.0101H66.6249V67.0664ZM70.3656 63.0292L69.4249 62.9998V65.479C69.4249 65.6554 69.4543 65.7729 69.5327 65.8513C69.6111 65.9297 69.7287 65.9591 69.905 65.9591H70.3656V67.0664H69.4641C68.9545 67.0664 68.5822 66.9586 68.3666 66.743C68.151 66.5275 68.0432 66.1551 68.0432 65.6456V62.9998L67.3573 63.0292V62.0101L68.0432 62.0297V60.4521H69.4249V62.0395L70.3656 62.0101V63.0292ZM72.5292 61.3438H71.1475V60.0896H72.5292V61.3438ZM72.5292 67.0664H71.1475V62.0101H72.5292V67.0664ZM77.4555 66.8018C77.0538 67.1056 76.505 67.2526 75.8191 67.2526C75.1234 67.2526 74.5844 67.1056 74.2121 66.8116C73.8201 66.5177 73.5947 66.1061 73.5261 65.5574L74.7902 65.5084C74.8784 66.0375 75.2409 66.2923 75.8681 66.2923C76.1424 66.2923 76.3678 66.2433 76.5344 66.1453C76.6912 66.0473 76.7794 65.9101 76.7794 65.7337C76.7794 65.4888 76.554 65.3222 76.1131 65.2242L75.1136 65.0282C74.1337 64.8322 73.6437 64.3423 73.6437 63.5486C73.6437 63.039 73.8299 62.6373 74.2023 62.3335C74.5746 62.0395 75.0744 61.8828 75.7015 61.8828C76.309 61.8828 76.8088 62.0297 77.2007 62.3237C77.5927 62.6177 77.8181 63.0096 77.8867 63.4996L76.6422 63.5486C76.603 63.333 76.505 63.1566 76.3286 63.0292C76.1522 62.9117 75.9367 62.8431 75.6819 62.8431C75.4467 62.8431 75.2703 62.8921 75.1332 62.99C74.996 63.088 74.9274 63.2252 74.9274 63.382C74.9274 63.6368 75.1136 63.8132 75.4957 63.8915L76.5834 64.1169C77.0831 64.2247 77.4555 64.3913 77.7005 64.6265C77.9357 64.8616 78.063 65.1752 78.063 65.5672C78.063 66.0963 77.8573 66.5079 77.4555 66.8018ZM81.8262 61.8828C82.3456 61.8828 82.7473 62.0493 83.0413 62.3629C83.3353 62.6863 83.4822 63.1272 83.4822 63.676V67.0664H82.1006V63.9895C82.1006 63.7152 82.032 63.5094 81.9046 63.3526C81.7772 63.2056 81.6008 63.1272 81.3657 63.1272C81.0717 63.1272 80.8267 63.2448 80.6503 63.4702C80.4642 63.6956 80.376 63.9895 80.376 64.3619V67.0664H78.9943V60.0896H80.376V62.6863C80.7091 62.1571 81.1893 61.8828 81.8262 61.8828ZM90.1076 67.2918C89.1571 67.2918 88.3829 66.9586 87.7754 66.2727C87.1679 65.5966 86.8641 64.6951 86.8641 63.578C86.8641 62.4707 87.1679 61.5888 87.7852 60.9225C88.4025 60.2659 89.1865 59.9328 90.1272 59.9328C90.9699 59.9328 91.6558 60.1581 92.1849 60.5991C92.7043 61.0401 92.9982 61.6378 93.0668 62.4021H91.6852C91.6264 62.0199 91.4598 61.726 91.205 61.5104C90.9503 61.2948 90.6073 61.187 90.1957 61.187C89.6078 61.187 89.1473 61.4026 88.8141 61.8338C88.4809 62.2649 88.3143 62.8529 88.3143 63.578C88.3143 64.3423 88.4809 64.94 88.8141 65.381C89.1473 65.8219 89.6078 66.0375 90.1957 66.0375C90.6171 66.0375 90.9601 65.9297 91.2148 65.6946C91.4696 65.4692 91.6264 65.1654 91.6852 64.7833H93.057C92.9982 65.5672 92.7043 66.1845 92.1849 66.6255C91.6558 67.0762 90.9699 67.2918 90.1076 67.2918ZM98.0874 66.4687C97.6073 66.9782 96.9899 67.233 96.2256 67.233C95.4613 67.233 94.8342 66.9782 94.3638 66.4687C93.8739 65.9689 93.6387 65.332 93.6387 64.5579C93.6387 63.7936 93.8739 63.1566 94.3638 62.6373C94.844 62.1375 95.4613 61.8828 96.2256 61.8828C96.9801 61.8828 97.5975 62.1375 98.0874 62.6373C98.5676 63.1566 98.8125 63.7936 98.8125 64.5579C98.8125 65.332 98.5676 65.9689 98.0874 66.4687ZM95.3143 65.724C95.5397 66.0179 95.8435 66.1551 96.2256 66.1551C96.6078 66.1551 96.9115 66.0179 97.1467 65.724C97.3623 65.4496 97.4799 65.0576 97.4799 64.5579C97.4799 64.0679 97.3623 63.676 97.1467 63.3918C96.9115 63.1076 96.6078 62.9606 96.2256 62.9606C95.8435 62.9606 95.5397 63.1076 95.3143 63.3918C95.0791 63.6858 94.9714 64.0679 94.9714 64.5579C94.9714 65.0478 95.0791 65.4398 95.3143 65.724ZM101.084 67.0664H99.7023V60.0896H101.084V67.0664ZM103.639 67.0664H102.257V60.0896H103.639V67.0664ZM109.633 64.7147V64.9498H105.969C105.988 65.332 106.106 65.626 106.321 65.8415C106.527 66.0571 106.801 66.1649 107.154 66.1649C107.644 66.1649 107.968 65.9493 108.134 65.5084L109.506 65.6064C109.33 66.1453 109.045 66.5569 108.653 66.8312C108.252 67.1056 107.762 67.2428 107.184 67.2428C106.36 67.2428 105.724 66.988 105.253 66.4785C104.783 65.9689 104.548 65.3222 104.548 64.5187C104.548 63.7544 104.773 63.1272 105.224 62.6275C105.675 62.1375 106.272 61.8828 107.037 61.8828C107.801 61.8828 108.418 62.1375 108.908 62.6471C109.388 63.1664 109.633 63.8524 109.633 64.7147ZM107.85 63.186C107.654 62.99 107.399 62.8921 107.086 62.8921C106.772 62.8921 106.507 62.99 106.311 63.186C106.106 63.4016 105.988 63.676 105.959 64.0091H108.203C108.163 63.6564 108.046 63.382 107.85 63.186ZM113.906 62.6373L113.955 62.0101H115.18V67.1252C115.18 67.7915 114.964 68.3011 114.543 68.6538C114.121 69.0066 113.533 69.183 112.769 69.183C112.064 69.183 111.505 69.036 111.113 68.742C110.721 68.4481 110.496 68.0267 110.447 67.478H111.721C111.799 67.9287 112.132 68.1541 112.74 68.1541C113.112 68.1541 113.386 68.0757 113.553 67.9091C113.71 67.7425 113.798 67.4878 113.798 67.1448V66.4491C113.455 66.8606 112.994 67.0664 112.426 67.0664C111.779 67.0664 111.26 66.8214 110.868 66.3315C110.457 65.8513 110.261 65.2242 110.261 64.4403C110.261 63.6564 110.457 63.039 110.868 62.5687C111.26 62.1179 111.779 61.8828 112.426 61.8828C113.073 61.8828 113.573 62.1375 113.906 62.6373ZM112.73 65.8905C113.063 65.8905 113.328 65.7631 113.543 65.4888C113.759 65.2242 113.867 64.8714 113.867 64.4403C113.867 64.0091 113.759 63.6662 113.543 63.3918C113.328 63.1272 113.063 62.99 112.73 62.99C112.387 62.99 112.113 63.1272 111.907 63.382C111.691 63.6466 111.593 63.9993 111.593 64.4403C111.593 64.891 111.691 65.2438 111.907 65.4986C112.113 65.7631 112.387 65.8905 112.73 65.8905ZM121.174 64.7147V64.9498H117.509C117.529 65.332 117.646 65.626 117.862 65.8415C118.068 66.0571 118.342 66.1649 118.695 66.1649C119.185 66.1649 119.508 65.9493 119.675 65.5084L121.047 65.6064C120.87 66.1453 120.586 66.5569 120.194 66.8312C119.792 67.1056 119.302 67.2428 118.724 67.2428C117.901 67.2428 117.264 66.988 116.794 66.4785C116.323 65.9689 116.088 65.3222 116.088 64.5187C116.088 63.7544 116.314 63.1272 116.764 62.6275C117.215 62.1375 117.813 61.8828 118.577 61.8828C119.341 61.8828 119.959 62.1375 120.449 62.6471C120.929 63.1664 121.174 63.8524 121.174 64.7147ZM119.39 63.186C119.195 62.99 118.94 62.8921 118.626 62.8921C118.313 62.8921 118.048 62.99 117.852 63.186C117.646 63.4016 117.529 63.676 117.499 64.0091H119.743C119.704 63.6564 119.586 63.382 119.39 63.186Z" fill="#17A8DF"/>
<path d="M81.816 147.624V153.005H85.066V153.438H81.326V147.624H81.816ZM89.8884 153.062H90.019V153.438H89.7496C89.4719 153.438 89.2759 153.381 89.1535 153.25C89.0228 153.128 88.9575 152.924 88.9493 152.646C88.8187 152.924 88.6064 153.144 88.3287 153.307C88.0429 153.471 87.7163 153.544 87.3407 153.544C86.8915 153.544 86.5404 153.438 86.2954 153.218C86.0423 153.005 85.9198 152.711 85.9198 152.336C85.9198 151.625 86.3771 151.209 87.2917 151.078L88.3532 150.939C88.5492 150.907 88.688 150.858 88.7697 150.776C88.8432 150.694 88.884 150.58 88.884 150.425V150.319C88.884 149.788 88.5002 149.518 87.7489 149.518C87.3733 149.518 87.0875 149.592 86.9079 149.731C86.7282 149.878 86.6221 150.106 86.5894 150.417H86.0995C86.1648 149.551 86.7282 149.11 87.7816 149.11C88.2961 149.11 88.688 149.224 88.9656 149.437C89.2433 149.657 89.3821 149.968 89.3821 150.359V152.483C89.3821 152.695 89.4148 152.85 89.4883 152.932C89.5618 153.022 89.6924 153.062 89.8884 153.062ZM87.4223 153.152C87.8143 153.152 88.1491 153.046 88.4185 152.826C88.688 152.613 88.8432 152.319 88.884 151.944V151.168C88.8023 151.225 88.688 151.266 88.541 151.282L87.3733 151.454C86.7201 151.552 86.4016 151.837 86.4016 152.319C86.4016 152.581 86.4914 152.785 86.6711 152.932C86.8507 153.079 87.0957 153.152 87.4223 153.152ZM91.3437 153.438H90.8537V147.624H91.3437V153.438ZM93.2579 148.285H92.7353V147.624H93.2579V148.285ZM93.2416 153.438H92.7516V149.224H93.2416V153.438ZM96.4869 149.608L95.4253 149.592V152.474C95.4253 152.67 95.4661 152.817 95.5478 152.899C95.6294 152.981 95.7601 153.022 95.9561 153.022H96.4787V153.438H95.8254C95.2293 153.438 94.9354 153.136 94.9354 152.532V149.592L94.2086 149.608V149.224L94.9354 149.241V147.975H95.4253V149.241L96.4869 149.224V149.608ZM99.3761 149.135C99.915 149.135 100.356 149.331 100.683 149.714C101.009 150.098 101.173 150.613 101.173 151.258C101.173 151.927 101.009 152.474 100.683 152.891C100.356 153.316 99.9069 153.528 99.3516 153.528C99.0331 153.528 98.7473 153.454 98.5023 153.299C98.2492 153.152 98.0532 152.94 97.9226 152.67V155.104H97.4326V149.224H97.8654V150.123C97.9797 149.829 98.1757 149.584 98.4452 149.404C98.7065 149.224 99.0168 149.135 99.3761 149.135ZM99.3107 153.103C99.7272 153.103 100.062 152.94 100.307 152.605C100.552 152.27 100.683 151.821 100.683 151.258C100.683 150.719 100.56 150.302 100.315 150.008C100.07 149.714 99.7354 149.559 99.3107 149.559C98.8861 149.559 98.5432 149.714 98.2819 150.025C98.0206 150.335 97.8981 150.76 97.8981 151.299C97.8981 151.854 98.0206 152.287 98.2819 152.613C98.5432 152.94 98.8861 153.103 99.3107 153.103ZM105.228 151.535V149.224H105.718V153.438H105.253V152.621C104.975 153.242 104.477 153.544 103.758 153.544C103.301 153.544 102.942 153.422 102.689 153.16C102.435 152.899 102.313 152.54 102.313 152.066V149.224H102.803V151.976C102.803 152.736 103.154 153.111 103.856 153.111C104.265 153.111 104.599 152.981 104.853 152.711C105.097 152.45 105.228 152.058 105.228 151.535ZM109.024 149.11C109.114 149.11 109.204 149.118 109.285 149.135V149.616C109.171 149.6 109.057 149.592 108.951 149.592C108.559 149.592 108.24 149.731 107.995 149.992C107.742 150.261 107.611 150.629 107.611 151.103V153.438H107.122V149.224H107.579V150.164C107.84 149.461 108.322 149.11 109.024 149.11Z" fill="#2E438E"/>
<path d="M139.385 102.345C140.185 102.541 140.593 103.031 140.593 103.815C140.593 104.321 140.43 104.713 140.112 104.999C139.793 105.293 139.369 105.432 138.83 105.432H136.053V99.6176H138.674C139.189 99.6176 139.597 99.7483 139.891 100.01C140.185 100.271 140.332 100.614 140.332 101.038C140.332 101.349 140.25 101.618 140.087 101.847C139.924 102.076 139.687 102.247 139.385 102.345ZM138.609 100.05H136.543V102.19H138.568C138.96 102.19 139.271 102.1 139.491 101.904C139.711 101.708 139.826 101.447 139.826 101.104C139.826 100.785 139.72 100.532 139.507 100.336C139.295 100.148 139.001 100.05 138.609 100.05ZM136.543 104.999H138.797C139.205 104.999 139.516 104.901 139.744 104.689C139.973 104.484 140.087 104.19 140.087 103.815C140.087 103.431 139.965 103.137 139.72 102.925C139.475 102.721 139.124 102.614 138.683 102.614H136.543V104.999ZM143.864 101.112C144.322 101.112 144.673 101.243 144.934 101.504C145.187 101.765 145.318 102.133 145.318 102.59V105.432H144.828V102.68C144.828 101.929 144.469 101.545 143.766 101.545C143.35 101.545 143.015 101.684 142.77 101.945C142.525 102.214 142.403 102.606 142.403 103.121V105.432H141.913V99.6176H142.403V101.969C142.68 101.398 143.17 101.112 143.864 101.112ZM150.445 105.056H150.575V105.432H150.306C150.028 105.432 149.832 105.374 149.71 105.244C149.579 105.121 149.514 104.917 149.506 104.64C149.375 104.917 149.163 105.138 148.885 105.301C148.599 105.464 148.273 105.538 147.897 105.538C147.448 105.538 147.097 105.432 146.852 105.211C146.599 104.999 146.476 104.705 146.476 104.329C146.476 103.619 146.934 103.202 147.848 103.072L148.91 102.933C149.106 102.9 149.244 102.851 149.326 102.77C149.4 102.688 149.44 102.574 149.44 102.418V102.312C149.44 101.782 149.057 101.512 148.305 101.512C147.93 101.512 147.644 101.586 147.464 101.724C147.285 101.871 147.179 102.1 147.146 102.41H146.656C146.721 101.545 147.285 101.104 148.338 101.104C148.853 101.104 149.244 101.218 149.522 101.43C149.8 101.651 149.939 101.961 149.939 102.353V104.476C149.939 104.689 149.971 104.844 150.045 104.925C150.118 105.015 150.249 105.056 150.445 105.056ZM147.979 105.146C148.371 105.146 148.706 105.04 148.975 104.819C149.244 104.607 149.4 104.313 149.44 103.937V103.162C149.359 103.219 149.244 103.26 149.097 103.276L147.93 103.447C147.277 103.545 146.958 103.831 146.958 104.313C146.958 104.574 147.048 104.778 147.228 104.925C147.407 105.072 147.652 105.146 147.979 105.146ZM154.987 105.432H154.407L152.774 103.121L151.9 103.913V105.432H151.41V99.6176H151.9V103.398L154.244 101.218H154.872L153.117 102.819L154.987 105.432ZM157.809 101.602L156.747 101.586V104.468C156.747 104.664 156.788 104.811 156.87 104.893C156.951 104.974 157.082 105.015 157.278 105.015H157.801V105.432H157.147C156.551 105.432 156.257 105.13 156.257 104.525V101.586L155.531 101.602V101.218L156.257 101.234V99.9687H156.747V101.234L157.809 101.218V101.602ZM162.478 105.056H162.609V105.432H162.339C162.062 105.432 161.866 105.374 161.743 105.244C161.613 105.121 161.547 104.917 161.539 104.64C161.409 104.917 161.196 105.138 160.919 105.301C160.633 105.464 160.306 105.538 159.93 105.538C159.481 105.538 159.13 105.432 158.885 105.211C158.632 104.999 158.51 104.705 158.51 104.329C158.51 103.619 158.967 103.202 159.882 103.072L160.943 102.933C161.139 102.9 161.278 102.851 161.36 102.77C161.433 102.688 161.474 102.574 161.474 102.418V102.312C161.474 101.782 161.09 101.512 160.339 101.512C159.963 101.512 159.677 101.586 159.498 101.724C159.318 101.871 159.212 102.1 159.179 102.41H158.689C158.755 101.545 159.318 101.104 160.371 101.104C160.886 101.104 161.278 101.218 161.555 101.43C161.833 101.651 161.972 101.961 161.972 102.353V104.476C161.972 104.689 162.005 104.844 162.078 104.925C162.152 105.015 162.282 105.056 162.478 105.056ZM160.012 105.146C160.404 105.146 160.739 105.04 161.008 104.819C161.278 104.607 161.433 104.313 161.474 103.937V103.162C161.392 103.219 161.278 103.26 161.131 103.276L159.963 103.447C159.31 103.545 158.991 103.831 158.991 104.313C158.991 104.574 159.081 104.778 159.261 104.925C159.441 105.072 159.686 105.146 160.012 105.146ZM165.387 101.128C165.926 101.128 166.367 101.324 166.694 101.708C167.02 102.092 167.184 102.606 167.184 103.251C167.184 103.921 167.02 104.468 166.694 104.885C166.367 105.309 165.918 105.521 165.363 105.521C165.044 105.521 164.758 105.448 164.513 105.293C164.26 105.146 164.064 104.934 163.934 104.664V107.097H163.444V101.218H163.876V102.116C163.991 101.822 164.187 101.577 164.456 101.398C164.717 101.218 165.028 101.128 165.387 101.128ZM165.322 105.097C165.738 105.097 166.073 104.934 166.318 104.599C166.563 104.264 166.694 103.815 166.694 103.251C166.694 102.712 166.571 102.296 166.326 102.002C166.081 101.708 165.746 101.553 165.322 101.553C164.897 101.553 164.554 101.708 164.293 102.018C164.032 102.329 163.909 102.753 163.909 103.292C163.909 103.847 164.032 104.28 164.293 104.607C164.554 104.934 164.897 105.097 165.322 105.097ZM171.239 103.529V101.218H171.729V105.432H171.264V104.615C170.986 105.236 170.488 105.538 169.769 105.538C169.312 105.538 168.953 105.415 168.7 105.154C168.446 104.893 168.324 104.533 168.324 104.06V101.218H168.814V103.97C168.814 104.729 169.165 105.105 169.867 105.105C170.276 105.105 170.61 104.974 170.863 104.705C171.108 104.444 171.239 104.052 171.239 103.529ZM175.035 101.104C175.125 101.104 175.215 101.112 175.296 101.128V101.61C175.182 101.594 175.068 101.586 174.962 101.586C174.57 101.586 174.251 101.724 174.006 101.986C173.753 102.255 173.622 102.623 173.622 103.096V105.432H173.132V101.218H173.59V102.157C173.851 101.455 174.333 101.104 175.035 101.104Z" fill="#2E438E"/>
</svg>
