<svg width="482" height="494" viewBox="0 0 482 494" fill="none" xmlns="http://www.w3.org/2000/svg">
<g style="mix-blend-mode:overlay" opacity="0.25" filter="url(#filter0_f_177_1961)">
<path d="M162.053 202.066C155.349 202.066 148.916 203.075 142.513 203.994C144.588 197.113 146.722 190.113 150.149 183.826C153.576 174.691 158.926 166.772 164.247 158.793C168.696 150.162 176.542 144.319 182.314 136.934C188.356 129.757 196.592 124.982 203.115 119.02C209.518 112.792 217.905 109.677 224.579 105.288C231.553 101.343 237.625 96.9832 244.118 94.907L260.321 88.3226L274.569 82.4798L259.99 25L242.044 29.2709C236.302 30.6946 229.298 32.3555 221.332 34.3427C213.186 35.8256 204.498 39.889 194.819 43.5964C185.26 47.808 174.197 50.6553 163.917 57.4176C153.576 63.8834 141.642 69.2814 131.12 77.9419C120.93 86.8693 108.635 94.6104 99.5569 105.97C89.637 116.588 79.8372 127.74 72.2319 140.434C63.4242 152.535 57.4421 165.822 51.1294 178.962C45.4179 192.101 40.8187 205.536 37.0611 218.586C29.9368 244.746 26.7503 269.6 25.5179 290.866C24.4958 312.161 25.097 329.868 26.3596 342.681C26.8105 348.731 27.6522 354.604 28.2534 358.667L29.0049 363.65L29.7865 363.472C35.1331 388.114 47.4411 410.759 65.2868 428.787C83.1326 446.816 105.787 459.491 130.629 465.347C155.471 471.202 181.485 469.999 205.663 461.877C229.841 453.754 251.194 439.044 267.253 419.448C283.311 399.851 293.419 376.17 296.406 351.143C299.393 326.115 295.138 300.765 284.133 278.024C273.127 255.283 255.822 236.081 234.218 222.639C212.614 209.197 187.594 202.064 162.053 202.066ZM492.719 202.066C486.015 202.066 479.582 203.075 473.179 203.994C475.253 197.113 477.388 190.113 480.815 183.826C484.241 174.691 489.592 166.772 494.913 158.793C499.362 150.162 507.208 144.319 512.979 136.934C519.022 129.757 527.258 124.982 533.781 119.02C540.184 112.792 548.571 109.677 555.244 105.288C562.219 101.343 568.291 96.9832 574.784 94.907L590.986 88.3226L605.235 82.4798L590.656 25L572.71 29.2709C566.968 30.6946 559.964 32.3555 551.998 34.3427C543.852 35.8256 535.164 39.889 525.484 43.5964C515.955 47.8377 504.863 50.6553 494.582 57.4473C484.241 63.913 472.307 69.311 461.786 77.9715C451.596 86.899 439.301 94.6401 430.223 105.97C420.303 116.588 410.503 127.74 402.898 140.434C394.09 152.535 388.108 165.822 381.795 178.962C376.084 192.101 371.484 205.536 367.727 218.586C360.603 244.746 357.416 269.6 356.184 290.866C355.162 312.161 355.763 329.868 357.025 342.681C357.476 348.731 358.318 354.604 358.919 358.667L359.671 363.65L360.452 363.472C365.799 388.114 378.107 410.759 395.953 428.787C413.798 446.816 436.453 459.491 461.294 465.347C486.136 471.202 512.151 469.999 536.329 461.877C560.507 453.754 581.86 439.044 597.919 419.448C613.977 399.851 624.084 376.17 627.072 351.143C630.059 326.115 625.804 300.765 614.798 278.024C603.793 255.283 586.487 236.081 564.883 222.639C543.279 209.197 518.26 202.064 492.719 202.066Z" fill="#F2F2F2"/>
</g>
<defs>
<filter id="filter0_f_177_1961" x="0" y="0" width="653" height="494" filterUnits="userSpaceOnUse" color-interpolation-filters="sRGB">
<feFlood flood-opacity="0" result="BackgroundImageFix"/>
<feBlend mode="normal" in="SourceGraphic" in2="BackgroundImageFix" result="shape"/>
<feGaussianBlur stdDeviation="12.5" result="effect1_foregroundBlur_177_1961"/>
</filter>
</defs>
</svg>
